<svg id="Layer_1" data-name="Layer 1" xmlns="http://www.w3.org/2000/svg" viewBox="0 0 562.93 635.14"><defs><style>.cls-1,.cls-2{fill:none}.cls-2{clip-rule:evenodd}.cls-3{clip-path:url(#clip-path)}.cls-4{clip-path:url(#clip-path-2)}.cls-5{clip-path:url(#clip-path-3)}.cls-6{fill:#ef3942}.cls-7{clip-path:url(#clip-path-4)}</style><clipPath id="clip-path"><path class="cls-1" d="M281.45 590.14c3.9 0 7.75-.84 11.61-1s7.67-1.28 11.52-1.61 7.65-.93 11.49-1.43 7.74-.41 11.55-1.08 7.59-1.46 11.37-2.3 8.07.3 11.81-.7 7.26-3 11-4.13 7.33-2.6 11-3.92 7.85-1.33 11.43-2.82 5.81-6.06 9.32-7.7 7.44-2.35 10.88-4.14 8-1.6 11.36-3.54 4.75-7.12 8-9.21 7-3.36 10.19-5.58 5.93-4.94 9-7.31 5.92-4.91 8.89-7.41 6.07-4.74 8.94-7.36 7-3.84 9.79-6.59 4.55-6.38 7.18-9.25 6.52-4.62 9-7.59 3.63-7.06 6-10.14 5-5.92 7.26-9.1 4.76-6.16 6.85-9.43 3.1-7.18 5-10.55 6.18-5.48 8-8.93 2.7-7.39 4.35-10.91 4.36-6.63 5.85-10.23 1.09-8 2.42-11.61 3-7.19 4.17-10.9 2.09-7.49 3.09-11.26 3.71-7.14 4.55-10.94-.46-8 .21-11.89 2.92-7.44 3.42-11.3 1.35-7.74 1.68-11.62-1.59-7.92-1.42-11.81 1.29-7.75 1.29-11.65-.79-7.8-1-11.66.79-7.89.45-11.75-1.27-7.75-1.77-11.59-1.92-7.61-2.59-11.42-1.31-7.69-2.14-11.46-3.27-7.19-4.27-10.93-3.06-7.13-4.22-10.83-1-7.8-2.33-11.44-2.69-7.26-4.18-10.84-4.45-6.46-6.09-10 .06-8.68-1.73-12.12-3.65-6.94-5.6-10.3-4.22-6.6-6.31-9.87-7.19-4.51-9.42-7.69-3.83-6.73-6.19-9.81-2.76-7.74-5.26-10.71-6.82-4.35-9.44-7.21-5.14-5.77-7.89-8.51-4.85-6.14-7.71-8.76-6.56-4.26-9.54-6.76-4.88-6.3-8-8.67-5.59-5.6-8.77-7.83-7.63-2.61-10.91-4.7-6.81-3.69-10.17-5.64-6-5.16-9.46-7-6.66-4.14-10.18-5.79-7.63-2-11.22-3.49-6.49-4.84-10.15-6.17-8.53 1-12.24-.21-6.46-5.57-10.22-6.57-8.07.25-11.88-.59-7.2-3.2-11.07-3.88-7.9.25-11.77-.25-7.83.78-11.72.45-7.6-1.52-11.5-1.69-7.7 1-11.6 1-7.84-3.6-11.71-3.43-7.7 1.92-11.51 2.28-8-1.44-11.86-.94-7.56 2.46-11.37 3.13-7.69 1.37-11.47 2.21-7.15 3.49-10.89 4.49-7.25 2.72-10.94 3.88-8.66-1.28-12.3 0-5.78 6.62-9.36 8.1-8.25.49-11.77 2.13-6.53 4.37-10 6.16-7.12 3.19-10.47 5.13-7.32 3-10.59 5.09-6.05 5-9.23 7.23-5.05 6.21-8.13 8.58-6.55 4.17-9.52 6.67-6.78 4-9.64 6.67-6.54 4.48-9.28 7.23-3.18 7.72-5.81 10.58-4.87 6-7.36 8.95-4.79 6-7.16 9.09-4.89 6-7.13 9.13-4.09 6.52-6.18 9.8-6.57 5.07-8.52 8.44-3.07 7.21-4.86 10.65-4.23 6.6-5.87 10.12-3.73 6.9-5.22 10.49-.08 8.3-1.41 12-4.2 6.74-5.37 10.45 0 8-1 11.8-1.79 7.45-2.63 11.25-2.14 7.4-2.81 11.23-2.37 7.44-2.87 11.3-1.32 7.64-1.65 11.53 0 7.75-.13 11.65-.39 7.71-.39 11.61 1.61 7.7 1.78 11.56-3.79 8-3.46 11.9 1.11 7.8 1.61 11.63 5.13 7.08 5.8 10.89.88 7.67 1.72 11.45-1.76 8.44-.76 12.18 5.44 6.53 6.6 10.22 2 7.47 3.33 11.11 3 7.1 4.52 10.68 2.39 7.39 4 10.9 4 6.64 5.78 10.08.43 8.65 2.38 12 4.23 6.63 6.32 9.9 6.38 5.1 8.63 8.31 5.65 5.41 8 8.49 3.52 7.07 6 10 3.25 7.53 5.87 10.39 7.31 3.8 10.05 6.54 3.58 7.53 6.45 10.15 5.85 5.25 8.82 7.74 6.29 4.7 9.37 7.07 8 2.18 11.22 4.41 4.67 7 7.94 9.09 7.83 2.12 11.19 4.07 6.66 4 10.1 5.76 6.1 5.23 9.63 6.87 7.93 1.29 11.53 2.78 7 3.34 10.67 4.67 7.25 2.77 11 3.94 7.07 3.6 10.83 4.61 8.05-.2 11.85.64 7.25 3.36 11.09 4 8-.78 11.83-.28 7.63 1.29 11.51 1.62 7.67 1.38 11.57 1.55 7.77.03 11.68.03z"/></clipPath><clipPath id="clip-path-2"><path class="cls-2" d="M281.45 590.14c3.9 0 7.75-.84 11.61-1s7.67-1.28 11.52-1.61 7.65-.93 11.49-1.43 7.74-.41 11.55-1.08 7.59-1.46 11.37-2.3 8.07.3 11.81-.7 7.26-3 11-4.13 7.33-2.6 11-3.92 7.85-1.33 11.43-2.82 5.81-6.06 9.32-7.7 7.44-2.35 10.88-4.14 8-1.6 11.36-3.54 4.75-7.12 8-9.21 7-3.36 10.19-5.58 5.93-4.94 9-7.31 5.92-4.91 8.89-7.41 6.07-4.74 8.94-7.36 7-3.84 9.79-6.59 4.55-6.38 7.18-9.25 6.52-4.62 9-7.59 3.63-7.06 6-10.14 5-5.92 7.26-9.1 4.76-6.16 6.85-9.43 3.1-7.18 5-10.55 6.18-5.48 8-8.93 2.7-7.39 4.35-10.91 4.36-6.63 5.85-10.23 1.09-8 2.42-11.61 3-7.19 4.17-10.9 2.09-7.49 3.09-11.26 3.71-7.14 4.55-10.94-.46-8 .21-11.89 2.92-7.44 3.42-11.3 1.35-7.74 1.68-11.62-1.59-7.92-1.42-11.81 1.29-7.75 1.29-11.65-.79-7.8-1-11.66.79-7.89.45-11.75-1.27-7.75-1.77-11.59-1.92-7.61-2.59-11.42-1.31-7.69-2.14-11.46-3.27-7.19-4.27-10.93-3.06-7.13-4.22-10.83-1-7.8-2.33-11.44-2.69-7.26-4.18-10.84-4.45-6.46-6.09-10 .06-8.68-1.73-12.12-3.65-6.94-5.6-10.3-4.22-6.6-6.31-9.87-7.19-4.51-9.42-7.69-3.83-6.73-6.19-9.81-2.76-7.74-5.26-10.71-6.82-4.35-9.44-7.21-5.14-5.77-7.89-8.51-4.85-6.14-7.71-8.76-6.56-4.26-9.54-6.76-4.88-6.3-8-8.67-5.59-5.6-8.77-7.83-7.63-2.61-10.91-4.7-6.81-3.69-10.17-5.64-6-5.16-9.46-7-6.66-4.14-10.18-5.79-7.63-2-11.22-3.49-6.49-4.84-10.15-6.17-8.53 1-12.24-.21-6.46-5.57-10.22-6.57-8.07.25-11.88-.59-7.2-3.2-11.07-3.88-7.9.25-11.77-.25-7.83.78-11.72.45-7.6-1.52-11.5-1.69-7.7 1-11.6 1-7.84-3.6-11.71-3.43-7.7 1.92-11.51 2.28-8-1.44-11.86-.94-7.56 2.46-11.37 3.13-7.69 1.37-11.47 2.21-7.15 3.49-10.89 4.49-7.25 2.72-10.94 3.88-8.66-1.28-12.3 0-5.78 6.62-9.36 8.1-8.25.49-11.77 2.13-6.53 4.37-10 6.16-7.12 3.19-10.47 5.13-7.32 3-10.59 5.09-6.05 5-9.23 7.23-5.05 6.21-8.13 8.58-6.55 4.17-9.52 6.67-6.78 4-9.64 6.67-6.54 4.48-9.28 7.23-3.18 7.72-5.81 10.58-4.87 6-7.36 8.95-4.79 6-7.16 9.09-4.89 6-7.13 9.13-4.09 6.52-6.18 9.8-6.57 5.07-8.52 8.44-3.07 7.21-4.86 10.65-4.23 6.6-5.87 10.12-3.73 6.9-5.22 10.49-.08 8.3-1.41 12-4.2 6.74-5.37 10.45 0 8-1 11.8-1.79 7.45-2.63 11.25-2.14 7.4-2.81 11.23-2.37 7.44-2.87 11.3-1.32 7.64-1.65 11.53 0 7.75-.13 11.65-.39 7.71-.39 11.61 1.61 7.7 1.78 11.56-3.79 8-3.46 11.9 1.11 7.8 1.61 11.63 5.13 7.08 5.8 10.89.88 7.67 1.72 11.45-1.76 8.44-.76 12.18 5.44 6.53 6.6 10.22 2 7.47 3.33 11.11 3 7.1 4.52 10.68 2.39 7.39 4 10.9 4 6.64 5.78 10.08.43 8.65 2.38 12 4.23 6.63 6.32 9.9 6.38 5.1 8.63 8.31 5.65 5.41 8 8.49 3.52 7.07 6 10 3.25 7.53 5.87 10.39 7.31 3.8 10.05 6.54 3.58 7.53 6.45 10.15 5.85 5.25 8.82 7.74 6.29 4.7 9.37 7.07 8 2.18 11.22 4.41 4.67 7 7.94 9.09 7.83 2.12 11.19 4.07 6.66 4 10.1 5.76 6.1 5.23 9.63 6.87 7.93 1.29 11.53 2.78 7 3.34 10.67 4.67 7.25 2.77 11 3.94 7.07 3.6 10.83 4.61 8.05-.2 11.85.64 7.25 3.36 11.09 4 8-.78 11.83-.28 7.63 1.29 11.51 1.62 7.67 1.38 11.57 1.55 7.77.03 11.68.03z"/></clipPath><clipPath id="clip-path-3"><path class="cls-1" d="M-666.95 7126.28c4.14 4.15 6-1 11.84-1s5.86 2.59 11.72 2.59 5.86-2.25 11.72-2.25 5.86.77 11.72.77 5.86-1.72 11.72-1.72 5.86 2.12 11.72 2.12 5.86.15 11.72.15 5.86.24 11.72.24 5.86.43 11.72.43 5.86-.2 11.72-.2 5.86-.88 11.72-.88 5.86-2.12 11.72-2.12 5.86 3.05 11.72 3.05 5.86-2.69 11.72-2.69 5.86 2.27 11.72 2.27 5.86.42 11.72.42 5.86-3.17 11.72-3.17 5.86 3.76 11.72 3.76 5.86-1.52 11.72-1.52 5.86-.82 11.72-.82 5.86-.76 11.72-.76 5.86 2.77 11.72 2.77 5.86-2.89 11.72-2.89 5.86 1.64 11.72 1.64 5.86.08 11.72.08 5.86 1.58 11.72 1.58 5.86-3.71 11.72-3.71 5.86 1.84 11.72 1.84 5.86 1.72 11.72 1.72 5.86-3.76 11.72-3.76 5.86 3.92 11.72 3.92 5.86-3 11.72-3 5.86-.62 11.72-.62 5.86 1.64 11.72 1.64 5.86-1.88 11.72-1.88 5.86 3 11.72 3 5.86-1.88 11.72-1.88 5.86-1.17 11.72-1.17 5.86.67 11.72.67 5.86-.45 11.72-.45 5.86 2.86 11.72 2.86 5.86-1.49 11.72-1.49 5.86-.08 11.72-.08 5.86 2 11.72 2 5.86.69 11.72.69 5.86.09 11.72.09 5.86-3 11.72-3 5.86.38 11.72.38 5.86-.56 11.72-.56 5.86-.38 11.72-.38 5.86 2.89 11.72 2.89 5.86-.19 11.72-.19 5.86.27 11.72.27 5.86-.56 11.72-.56 5.86.24 11.72.24 5.86-3.58 11.72-3.58 5.86.52 11.72.52 5.86 3.89 11.72 3.89 5.86-1.26 11.72-1.26 5.86-3 11.72-3 5.86-.06 11.72-.06 5.86 4.25 11.72 4.25 5.86-2.94 11.72-2.94 5.86 3 11.72 3 5.86-2.68 11.72-2.68 5.86 1 11.72 1 5.86-1.74 11.72-1.74 5.86 2.32 11.72 2.32 5.86.85 11.72.85 5.86-1.75 11.72-1.75 5.86 1.54 11.72 1.54H177c5.86 0 5.86-2 11.72-2s5.86.18 11.72.18 5.86-1.68 11.72-1.68 5.86 2.92 11.72 2.92 5.86-.54 11.72-.54 5.86-1.09 11.72-1.09 5.86.51 11.71.51 5.86-1.07 11.71-1.07 5.86 3.08 11.71 3.08 5.86-2.44 11.71-2.44 5.86 1.34 11.71 1.34 5.86.69 11.71.69 5.86-3.85 11.72-3.85 5.86 3 11.72 3 5.86 1.46 11.72 1.46 5.86-1.75 11.72-1.75 5.86-2.71 11.72-2.71 5.86.45 11.72.45 5.86.55 11.72.55 5.86.56 11.71.56 5.86 1.55 11.71 1.55 5.86-1.37 11.71-1.37 5.86.72 11.72.72 5.86.23 11.72.23 5.86-2.26 11.72-2.26 5.86 3.77 11.72 3.77 5.86-.61 11.72-.61 5.86-3.35 11.72-3.35 5.86 4.16 11.72 4.16 5.86-3 11.72-3 5.86-.5 11.72-.5 5.86 2.74 11.72 2.74h11.72c5.86 0 5.86.62 11.72.62s5.86-3.18 11.72-3.18 5.86 1.7 11.72 1.7 5.86-.54 11.72-.54 5.86-.93 11.72-.93 5.86-.64 11.72-.64 5.86 2.54 11.72 2.54 5.86-.6 11.72-.6 5.86-.2 11.72-.2 5.86-2.38 11.72-2.38 5.86 1.23 11.72 1.23 5.86 3.05 11.72 3.05 5.86-4.34 11.72-4.34h11.72c5.86 0 5.86.66 11.72.66s5.86.4 11.72.4 5.86-.1 11.72-.1 5.86 2.21 11.72 2.21 5.86 1.22 11.72 1.22 5.86-2.17 11.72-2.17 5.86 2 11.72 2 5.86-.46 11.72-.46 5.86-3.42 11.72-3.42 5.86 1.68 11.72 1.68 5.86 2.2 11.72 2.2 5.86-1.27 11.72-1.27 5.86.54 11.72.54 5.86-2.79 11.72-2.79 5.86 3.63 11.72 3.63 5.86-3.6 11.72-3.6 5.86 2.75 11.72 2.75 5.86-3.42 11.72-3.42 5.86 3.07 11.72 3.07 5.86-1.51 11.72-1.51 5.86 2.14 11.72 2.14 5.86-3.18 11.72-3.18 5.86-.41 11.72-.41 5.86 3.55 11.72 3.55 5.86-2.27 11.72-2.27 5.86-1.17 11.72-1.17 5.86 2.31 11.72 2.31 5.86.62 11.72.62 5.86-.87 11.72-.87 5.86 1.32 11.72 1.32 5.86-1.34 11.72-1.34 5.86.43 11.72.43h11.72c5.86 0 5.86-2.36 11.72-2.36h11.72c5.86 0 5.86.23 11.72.23s5.86-.32 11.72-.32 5.86 3.42 11.72 3.42 5.86-1 11.72-1 5.86 1.48 11.72 1.48 5.86-1.78 11.72-1.78 5.86 1.63 11.72 1.63 5.86-4 11.72-4 5.86 3.21 11.72 3.21 5.86-.56 11.72-.56 5.86 1.61 11.72 1.61 5.86-2.32 11.72-2.32 5.86-.77 11.72-.77 5.86 2.35 11.72 2.35 5.86-1.55 11.72-1.55 5.86-.07 11.72-.07 5.86 2.4 11.72 2.4 5.86-2.76 11.72-2.76 5.86 1.9 11.72 1.9 5.86-2.2 11.72-2.2 5.86.83 11.72.83 5.86 1.24 11.72 1.24 5.86-1.3 11.72-1.3 5.86-.66 11.72-.66 5.86 1.6 11.72 1.6 5.86-.49 11.72-.49 5.86-.84 11.72-.84 5.86-.16 11.72-.16 5.86-1.52 11.72-1.52h11.72c5.86 0 5.86.16 11.72.16s5.86 1.54 11.72 1.54 5.86.83 11.72.83 5.86-.49 11.72-.49 5.86 1.62 11.72 1.62 5.86-.36 11.72-.36 5.86-3.13 11.72-3.13 5.86.5 11.72.5 5.86-.24 11.72-.24 5.86 1.23 11.72 1.23 5.86 2.06 11.72 2.06 5.86-.12 11.72-.12 5.86-1.48 11.72-1.48 5.86-2.06 11.72-2.06 5.86 1.87 11.72 1.87 5.86 2.16 11.72 2.16 5.86-1.15 11.72-1.15 5.86.12 11.72.12 5.86-.91 11.72-.91 5.86 1.1 11.72 1.1 5.86-1.69 11.72-1.69 5.86-1.59 11.72-1.59 5.86 2.31 11.72 2.31 5.86.72 11.72.72 5.86-3.08 11.72-3.08 5.86 1.66 11.72 1.66 5.86 1.49 11.72 1.49 5.86 1.23 11.72 1.23 5.86-3.73 11.72-3.73 5.86 3.48 11.72 3.48 5.86-.25 11.72-.25 5.86-1.79 11.72-1.79 5.86 1.44 11.72 1.44 5.86-1.2 11.72-1.2 5.86 1.65 11.72 1.65 5.86-2 11.72-2 5.86-.9 11.72-.9 5.86 3.26 11.72 3.26 5.86-.61 11.72-.61 5.86-2.91 11.72-2.91 5.86 3.39 11.72 3.39 5.86-4 11.72-4 5.86 3.35 11.72 3.35 5.86-2.41 11.72-2.41 5.86 1.59 11.73 1.59 5.86-1.24 11.73-1.24 6.22 3.47 10.37-.68.55-4.5.55-10.36.67-5.86.67-11.72 1.74-5.86 1.74-11.72-2.1-5.86-2.1-11.72-1.25-5.86-1.25-11.72 2.09-5.86 2.09-11.72-.11-5.86-.11-11.72 1.45-5.86 1.45-11.72.36-5.86.36-11.72-3.47-5.86-3.47-11.72.12-5.86.12-11.72 1.77-5.86 1.77-11.72 1.4-5.86 1.4-11.72-2.54-5.86-2.54-11.72-1.51-5.86-1.51-11.72 1.27-5.86 1.27-11.72-.51-5.86-.51-11.72.12-5.86.12-11.72 2.74-5.86 2.74-11.72-3.64-5.86-3.64-11.72 4.3-5.86 4.3-11.72-1.47-5.86-1.47-11.72-1.64-5.86-1.64-11.72.5-5.86.5-11.72 2.69-5.86 2.69-11.72-2.41-5.86-2.41-11.72 2.26-5.86 2.26-11.72-2.54-5.86-2.54-11.72.23-5.86.23-11.72 2.24-5.86 2.24-11.72-2.69-5.86-2.69-11.72-1.4-5.86-1.4-11.72 1-5.86 1-11.72 2.82-5.86 2.82-11.72-3.37-5.86-3.37-11.72-.4-5.86-.4-11.72.85-5.86.85-11.72 2.54-5.86 2.54-11.72-1-5.86-1-11.72 1.39-5.86 1.39-11.72-1.91-5.86-1.91-11.72 1.11-5.86 1.11-11.72-2.49-5.86-2.49-11.72v-11.72-11.72c0-5.86 3.55-5.86 3.55-11.72s-.57-5.86-.57-11.72.61-5.86.61-11.72-2.07-5.86-2.07-11.72-.08-5.86-.08-11.72-.22-5.86-.22-11.72 2-5.86 2-11.72-1.28-5.86-1.28-11.72-1.4-5.86-1.4-11.72-1-5.86-1-11.72 1.33-5.86 1.33-11.72 3-5.86 3-11.72-.08-5.86-.08-11.72-.94-5.86-.94-11.72-1.86-5.86-1.86-11.72.12-5.86.12-11.72 1.58-5.86 1.58-11.72-1.84-5.86-1.84-11.72 1.53-5.86 1.53-11.72-2.79-5.86-2.79-11.72.21-5.86.21-11.72 2.25-5.86 2.25-11.72 1-5.86 1-11.72-1.86-5.86-1.86-11.72-1.38-5.86-1.38-11.72-.2-5.86-.2-11.72 1.27-5.86 1.27-11.72-.77-5.86-.77-11.72 1.17-5.86 1.17-11.72-.53-5.86-.53-11.72-1.26-5.86-1.26-11.72v-11.72c0-5.86 2.26-5.86 2.26-11.72s.91-5.86.91-11.72.48-5.86.48-11.72-.44-5.86-.44-11.72.6-5.86.6-11.72-2.59-5.86-2.59-11.72-.36-5.86-.36-11.72.7-5.86.7-11.72-1.43-5.86-1.43-11.72 4.06-5.86 4.06-11.72-1-5.86-1-11.72.18-5.86.18-11.72-3.38-5.86-3.38-11.72.34-5.86.34-11.72 1.48-5.86 1.48-11.72 1.49-5.86 1.49-11.72-3.26-5.86-3.26-11.72 4.18-5.86 4.18-11.72-.84-5.86-.84-11.72-2.67-5.86-2.67-11.72 2-5.86 2-11.72-2.1-5.86-2.1-11.72-.52-5.86-.52-11.72 2.42-5.86 2.42-11.72-1-5.86-1-11.72.29-5.86.29-11.72.81-5.86.81-11.72-1.71-5.86-1.71-11.72 1.45-5.86 1.45-11.72.84-5.86.84-11.72 1.26-5.86 1.26-11.72-2.27-5.86-2.27-11.72.11-5.86.11-11.72.38-5.86.38-11.72-.39-5.86-.39-11.72-.4-5.86-.4-11.72 2.48-5.86 2.48-11.72-3.12-5.86-3.12-11.72 3-5.86 3-11.72-3.87-5.86-3.87-11.72 2.81-5.86 2.81-11.72-3.22-5.86-3.22-11.72.49-5.86.49-11.72 3.86-5.86 3.86-11.72-2.75-5.86-2.75-11.72.07-5.86.07-11.72-.43-5.86-.43-11.72 2.36-5.86 2.36-11.72-.94-5.86-.94-11.72-1.68-5.86-1.68-11.72 1.89-5.86 1.89-11.72-2.05-5.86-2.05-11.72-.35-5.86-.35-11.72 2.2-5.86 2.2-11.72-2.48-5.86-2.48-11.72 1-5.86 1-11.72-.77-5.86-.77-11.72 1.15-5.86 1.15-11.72.31-5.86.31-11.72 1.73-5.86 1.73-11.72-1.86-5.86-1.86-11.72-.71-5.86-.71-11.72 2.21-5.86 2.21-11.72-2.66-5.86-2.66-11.72-.36-5.86-.36-11.72 2.72-5.86 2.72-11.72-2.71-5.86-2.71-11.72.67-5.86.67-11.72 1.92-5.86 1.92-11.72-2.31-5.86-2.31-11.72 3.33-5.86 3.33-11.72-3.45-5.86-3.45-11.72 2.61-5.86 2.61-11.72-.15-5.86-.15-11.72-.6-5.86-.6-11.72-.86-5.86-.86-11.72 2.86-5.86 2.86-11.72-.36-5.86-.36-11.72-1.23-5.86-1.23-11.72-1-5.86-1-11.72 2.26-5.86 2.26-11.72-1.75-5.86-1.75-11.72-2.1-5.86-2.1-11.72 3.12-5.86 3.12-11.72-1.06-5.86-1.06-11.72.13-5.86.13-11.72-1.81-5.86-1.81-11.72 2.29-5.86 2.29-11.72v-11.72c0-5.86 1.42-5.86 1.42-11.72s-3.93-5.86-3.93-11.72.64-5.86.64-11.72 1.68-5.86 1.68-11.72-.12-5.86-.12-11.72 1.38-5.86 1.38-11.72-3.51-5.86-3.51-11.72 3.94-5.86 3.94-11.72-2.61-5.86-2.61-11.72 2.49-5.86 2.49-11.72-.87-5.86-.87-11.72.36-5.86.36-11.72-2.32-5.86-2.32-11.72 1.8-5.86 1.8-11.72-1.92-5.86-1.92-11.72-1.06-5.86-1.06-11.72 2.34-5.86 2.34-11.72-.8-5.86-.8-11.72 1.3-5.86 1.3-11.72 1.39-5.86 1.39-11.72-1.31-5.86-1.31-11.72 1.42-5.86 1.42-11.72-.35-5.86-.35-11.72-3.95-5.86-3.95-11.72 1.7-5.86 1.7-11.72-1.27-5.86-1.27-11.72 1.51-5.86 1.51-11.72 1.6-5.86 1.6-11.72-2.22-5.86-2.22-11.72.57-5.86.57-11.72-.73-5.86-.73-11.72 2.52-5.86 2.52-11.72-1.59-5.86-1.59-11.72-1.38-5.86-1.38-11.72 2.63-5.86 2.63-11.72.29-5.86.29-11.72-3.11-5.86-3.11-11.72 3.69-5.86 3.69-11.72-4.27-5.86-4.27-11.72 3-5.86 3-11.72-.47-5.86-.47-11.72-2.58-5.86-2.58-11.72 3.3-5.86 3.3-11.72-.16-5.86-.16-11.72-2.51-5.86-2.51-11.72v-11.72c0-5.86-.27-5.86-.27-11.72s2.44-5.86 2.44-11.72.7-5.86.7-11.72-.68-5.86-.68-11.72 1.16-5.86 1.16-11.72-.44-5.86-.44-11.72-.24-5.86-.24-11.72-3.22-5.86-3.22-11.72 1.75-5.86 1.75-11.72 2.62-5.86 2.62-11.72-4.38-5.86-4.38-11.72 2.82-5.86 2.82-11.72-1.7-5.86-1.7-11.72.84-5.86.84-11.72-.5-5.86-.5-11.72-.24-5.86-.24-11.72 1.48-5.86 1.48-11.72-.46-5.86-.46-11.72 1.4-5.86 1.4-11.72-3.69-5.86-3.69-11.72-.09-5.86-.09-11.72 1-5.86 1-11.72 1.08-5.86 1.08-11.72.95-5.86.95-11.72-1.53-5.86-1.53-11.72 1.12-5.86 1.12-11.72-.25-5.86-.25-11.72 1.31-5.86 1.31-11.72-3-5.86-3-11.72 3-5.86 3-11.72.65-5.86.65-11.72.23-5.86.23-11.72-1.24-5.86-1.24-11.72-3-5.86-3-11.72 3.37-5.86 3.37-11.72-.24-5.86-.24-11.72-3.08-5.86-3.08-11.72.12-5.86.12-11.72 3.64-5.86 3.64-11.72-2.54-5.86-2.54-11.72 1-5.86 1-11.72-.86-5.86-.86-11.72 1.65-5.86 1.65-11.72.07-5.86.07-11.72-3-5.86-3-11.72 4.1-5.86 4.1-11.72-1.15-5.86-1.15-11.72.52-5.86.52-11.72-1.49-5.86-1.49-11.72-2-5.86-2-11.72-.27-5.86-.27-11.72.79-5.86.79-11.72 1.24-5.86 1.24-11.72 2.24-5.86 2.24-11.72-1.27-5.86-1.27-11.72-.78-5.86-.78-11.72 1.85-5.86 1.85-11.72-1.52-5.86-1.52-11.72.64-5.86.64-11.72-2.5-5.86-2.5-11.72 3.35-5.86 3.35-11.72-.75-5.86-.75-11.72-.16-5.86-.16-11.72.62-5.86.62-11.72-.13-5.86-.13-11.72-1-5.86-1-11.72-1.17-5.86-1.17-11.72 1.1-5.86 1.1-11.72-1.26-5.86-1.26-11.72 1.83-5.86 1.83-11.72.31-5.86.31-11.72-1.6-5.86-1.6-11.72.53-5.86.53-11.72-.17-5.86-.17-11.72-1.25-5.86-1.25-11.72-.84-5.86-.84-11.72 3.83-5.86 3.83-11.72-3.39-5.86-3.39-11.72 1.32-5.86 1.32-11.72-.9-5.86-.9-11.72 1-5.86 1-11.72.85-5.86.85-11.72-.74-5.86-.74-11.72 1.55-5.86 1.55-11.72v-11.72c0-5.86-1.45-5.86-1.45-11.72s1.75-5.86 1.75-11.72.57-5.86.57-11.72-3.26-5.86-3.26-11.72.5-5.86.5-11.72-1.49-5.86-1.49-11.72 1.8-5.86 1.8-11.72-1.79-5.86-1.79-11.72 1.53-5.86 1.53-11.72-.29-5.86-.29-11.72v-11.72c0-5.86 1.48-5.86 1.48-11.72s-2.12-5.86-2.12-11.72 1.2-5.86 1.2-11.72-.07-5.86-.07-11.72 1.42-5.86 1.42-11.72-.53-5.86-.53-11.72.85-5.86.85-11.72-.33-5.86-.33-11.72-2.81-5.86-2.81-11.72 1.24-5.86 1.24-11.72.62-5.86.62-11.72.24-5.86.24-11.72.72-5.86.72-11.72.62-5.86.62-11.72-3-5.86-3-11.72 1.39-5.86 1.39-11.72-.23-5.86-.23-11.72-2.06-5.86-2.06-11.72 4.15-5.86 4.15-11.72-2.26-5.86-2.26-11.72 1.44-5.86 1.44-11.72-1.37-5.86-1.37-11.72 2.13-5.86 2.13-11.72-1.48-5.86-1.48-11.72-.35-5.86-.35-11.72-.55-5.86-.55-11.72 1.66-5.86 1.66-11.72-1.3-5.86-1.3-11.72 1.28-5.86 1.28-11.72.46-5.86.46-11.72-1.35-5.86-1.35-11.72-2.28-5.86-2.28-11.72.3-5.86.3-11.72 2.14-5.86 2.14-11.72.1-5.86.1-11.72-2-5.86-2-11.72 2.59-5.86 2.59-11.72-2.52-5.86-2.52-11.72.91-5.86.91-11.72 1.94-5.86 1.94-11.72-.21-5.86-.21-11.72.5-5.86.5-11.72-3.56-5.86-3.56-11.72 4-5.86 4-11.72-.34-5.86-.34-11.72-2-5.86-2-11.72 1.78-5.86 1.78-11.72.22-5.86.22-11.72-2.59-5.86-2.59-11.72 2.5-5.86 2.5-11.72-1.4-5.86-1.4-11.72-1.82-5.86-1.82-11.72.16-5.86.16-11.72 2.66-5.86 2.66-11.72-.76-5.86-.76-11.72.84-5.86.84-11.72-2-5.86-2-11.72 1.84-5.86 1.84-11.72-1.57-5.86-1.57-11.72.59-5.86.59-11.72-1.33-5.86-1.33-11.72.91-5.86.91-11.72-2.11-5.86-2.11-11.72 2.84-5.86 2.84-11.72.44-5.86.44-11.72-2.09-5.86-2.09-11.72 1.69-5.86 1.69-11.72-2.53-5.86-2.53-11.72 2.74-5.86 2.74-11.72.89-5.86.89-11.72-1-5.86-1-11.72-2.71-5.86-2.71-11.72 1.77-5.86 1.77-11.72-.16-5.86-.16-11.72 1.06-5.86 1.06-11.72-1.86-5.86-1.86-11.72 1.85-5.86 1.85-11.72-1.66-5.86-1.66-11.72 2.23-5.86 2.23-11.72-1.91-5.86-1.91-11.72-.49-5.86-.49-11.72 1-5.86 1-11.72 1.59-5.86 1.59-11.72-1.38-5.86-1.38-11.72-2-5.86-2-11.72 2.29-5.86 2.29-11.72-.13-5.86-.13-11.72-2.36-5.86-2.36-11.72.41-5.86.41-11.72 1.11-5.86 1.11-11.72 2.79-5.86 2.79-11.72-2.36-5.86-2.36-11.72 2.11-5.86 2.11-11.72-.77-5.86-.77-11.72-3.06-5.86-3.06-11.72 2.19-5.86 2.19-11.72-.24-5.86-.24-11.72-.76-5.86-.76-11.72 1.28-5.86 1.28-11.72 1.32-5.86 1.32-11.72-3.92-5.86-3.92-11.72 1.63-5.86 1.63-11.72 1.16-5.86 1.16-11.72 1.18-5.86 1.18-11.72-.58-5.86-.58-11.72-2.48-5.86-2.48-11.72.26-5.86.26-11.72 2.66-5.86 2.66-11.72-2.34-5.86-2.34-11.72-1.61-5.86-1.61-11.72 1.63-5.86 1.63-11.72 2.61-5.86 2.61-11.72-3.78-5.86-3.78-11.72 3.12-5.86 3.12-11.72-1.53-5.86-1.53-11.72-.1-5.86-.1-11.72-.21-5.86-.21-11.72-1.17-5.86-1.17-11.72v-11.72c0-5.86 2.37-5.86 2.37-11.72s-.06-5.86-.06-11.72.34-5.86.34-11.72-.33-5.86-.33-11.72-1.16-5.86-1.16-11.72-1.15-5.86-1.15-11.72 1.44-5.86 1.44-11.72-1.8-5.86-1.8-11.72 1.39-5.86 1.39-11.72-1.05-5.86-1.05-11.72 2.54-5.86 2.54-11.72-3-5.86-3-11.72 3.81-5.86 3.81-11.72-2.08-5.86-2.08-11.72 1.29-5.86 1.29-11.72-2.17-5.86-2.17-11.72 2.29-5.86 2.29-11.72 1-5.86 1-11.72-3.06-5.86-3.06-11.72.88-5.86.88-11.72 1.78-5.86 1.78-11.72-1.46-5.86-1.46-11.72-.16-5.86-.16-11.72 1.49-5.86 1.49-11.72-.81-5.86-.81-11.72-1.22-5.86-1.22-11.72 1.11-5.86 1.11-11.72.22-5.86.22-11.72-1.1-5.86-1.1-11.72-.61-5.86-.61-11.72-1.26-5.86-1.26-11.72 2.94-5.86 2.94-11.72-2.82-5.86-2.82-11.72 1.74-5.86 1.74-11.72-1.34-5.86-1.34-11.72-.36-5.86-.36-11.72.05-5.86.05-11.72 1.75-5.86 1.75-11.72.45-5.86.45-11.72-2.25-5.86-2.25-11.72 2.1-5.86 2.1-11.72 1.56-5.86 1.56-11.72.23-5.86.23-11.72-.88-5.86-.88-11.72-.18-5.86-.18-11.72-.95-5.86-.95-11.72 2.06-5.86 2.06-11.72-3.89-5.86-3.89-11.72 3.55-5.86 3.55-11.72-.68-5.86-.68-11.72-2.5-5.86-2.5-11.72 3.53-5.86 3.53-11.72-1.5-5.86-1.5-11.72.57-5.86.57-11.72.48-5.86.48-11.72-2.94-5.86-2.94-11.72 1.16-5.86 1.16-11.72-1.51-5.86-1.51-11.73 1.32-5.86 1.32-11.72 2.45-5.86 2.45-11.72-2.38-5.86-2.38-11.72-1.82-5.86-1.82-11.72-.08-5.86-.08-11.72 1.31-5.86 1.31-11.72 1.22-5.86 1.22-11.72.1-5.86.1-11.72.3-5.86.3-11.72-2.14-5.86-2.14-11.72 2.28-5.86 2.28-11.72-.79-5.86-.79-11.72-1.13-5.86-1.13-11.72-.89-5.86-.89-11.72 2-5.86 2-11.72.31-5.86.31-11.72-1-5.86-1-11.72 2.26-5.86 2.26-11.72-1.53-5.86-1.53-11.72-2.32-5.86-2.32-11.72 2.12-5.86 2.12-11.72 1.38-5.86 1.38-11.72-.66-5.86-.66-11.72-.74-5.86-.74-11.72-.85-5.86-.85-11.72 2.54-5.86 2.54-11.72-3.62-5.86-3.62-11.72 2.65-5.86 2.65-11.72-1.38-5.86-1.38-11.72.11-5.86.11-11.72-.39-5.86-.39-11.72 3.16-5.86 3.16-11.72-3-5.86-3-11.72-.94-5.86-.94-11.72 3.18-5.86 3.18-11.72.34-5.86.34-11.73-3.72-5.86-3.72-11.72 4.13-5.86 4.13-11.72-2.25-5.86-2.25-11.72 1.27-5.86 1.27-11.72 1-5.86 1-11.72-3.07-5.86-3.07-11.72 2.55-5.86 2.55-11.72.67-5.86.67-11.72-.12-5.86-.12-11.72-.46-5.86-.46-11.72-.8-5.86-.8-11.72-.1-5.86-.1-11.72 1.47-5.86 1.47-11.72-.49-5.86-.49-11.72.34-5.86.34-11.72-.57-5.86-.57-11.73.24-5.86.24-11.72-1-5.86-1-11.72-1.72-5.86-1.72-11.72-.62-5.86-.62-11.72 2.45-5.86 2.45-11.72-.38-5.86-.38-11.72-.43-5.86-.43-11.72 2-5.86 2-11.72-2.27-5.86-2.27-11.72-2.08-5.86-2.08-11.72 4.45-5.86 4.45-11.72-3.87-5.86-3.87-11.72.26-5.86.26-11.72.47-5.86.47-11.73.5-5.86.5-11.73-.77-5.86-.77-11.72.55-5.86.55-11.72.55-5.86.55-11.72-2-5.86-2-11.72.68-5.86.68-11.72 1.47-5.86 1.47-11.72-2.27-5.86-2.27-11.72 3-5.86 3-11.72.21-5.86.21-11.72-1.91-5.86-1.91-11.72-.89-5.86-.89-11.72 1.73-5.86 1.73-11.72-1.26-5.86-1.26-11.73 1.82-5.86 1.82-11.72.42-5.86.42-11.72-2.55-5.86-2.55-11.72 3.02-7.06 3.02-12.88.3-5.86.3-11.72-4.38-5.86-4.38-11.72.44-5.86.44-11.72 1.07-5.86 1.07-11.72-.62-5.86-.62-11.72-.63-5.86-.63-11.72 3.63-5.86 3.63-11.72-1.31-5.86-1.31-11.73 1.82-5.86 1.82-11.73-1.15-5.86-1.15-11.72-1.19-5.86-1.19-11.72v-11.72c0-5.86.93-5.86.93-11.72s-2.84-5.86-2.84-11.72 2.39-5.86 2.39-11.72.18-5.86.18-11.72-1.35-5.86-1.35-11.72.76-5.86.76-11.72v-11.73c0-5.87 1.16-5.86 1.16-11.73s-1.34-5.86-1.34-11.72-.58-5.86-.58-11.72 1.75-5.86 1.75-11.72-.69-5.86-.69-11.72-2.17-5.86-2.17-11.72.77-5.86.77-11.72-.2-5.86-.2-11.72 2.65-5.86 2.65-11.72-.72-5.86-.72-11.72-.81-5.86-.81-11.73.63-5.86.63-11.73-1.19-5.86-1.19-11.72 2.19-5.86 2.19-11.72.45-5.86.45-11.72-2.64-5.86-2.64-11.72-.51-5.86-.51-11.72.73-5.86.73-11.72.09-5.86.09-11.72.19-5.86.19-11.72.16-5.86.16-11.73 1.84-5.86 1.84-11.73.42-5.86.42-11.72-1.71-5.86-1.71-11.72-.71-5.86-.71-11.72-1.44-5.86-1.44-11.72.68-5.86.68-11.72-.55-5.86-.55-11.72 2.25-5.86 2.25-11.72-.11-5.86-.11-11.73-.41-5.86-.41-11.73-2.19-5.86-2.19-11.72 3.85-5.86 3.85-11.72-.95-5.86-.95-11.72-.54-5.86-.54-11.72-2.43-5.86-2.43-11.72 2.31-5.86 2.31-11.72-.58-5.86-.58-11.73 1.2-5.86 1.2-11.73-2.11-5.86-2.11-11.73 2.09-5.86 2.09-11.72-1.76-5.86-1.76-11.72 2-5.86 2-11.72-1.51-5.86-1.51-11.72-.87-5.86-.87-11.72 1.83-5.86 1.83-11.73-1.61-5.86-1.61-11.73-.64-5.86-.64-11.73 1.73-5.86 1.73-11.72-.35-5.86-.35-11.72-1.62-5.86-1.62-11.72 4.2-5.86 4.2-11.72-1.5-5.86-1.5-11.72-1.62-5.86-1.62-11.73 3-5.86 3-11.73-3.74-5.86-3.74-11.73-.52-5.86-.52-11.72 2.38-5.86 2.38-11.72-1.89-5.86-1.89-11.72 1.1-5.86 1.1-11.72 2.79-5.86 2.79-11.73-4.09-5.86-4.09-11.73 3.82-5.86 3.82-11.73-.15-5.86-.15-11.72-1-5.86-1-11.72.62-5.86.62-11.72-1.84-5.86-1.84-11.72-1.16-5.86-1.16-11.73 2.71-5.86 2.71-11.73-.81-5.86-.81-11.72-.07-5.86-.07-11.72 1.07-5.86 1.07-11.72-.55-5.86-.55-11.72-.89-5.86-.89-11.72-.5-5.86-.5-11.72-1.55-5.86-1.55-11.72 3.36-5.86 3.36-11.72.25-5.86.25-11.72-.06-5.86-.06-11.72-.88-5.86-.88-11.73-.46-5.86-.46-11.73-1.1-6.04-1.1-11.92 2.83-5.86 2.83-11.72-.72-5.86-.72-11.72-2.23-5.86-2.23-11.72 1.75-5.86 1.75-11.72.74-5.86.74-11.72.36-5.86.36-11.72-.11-5.86-.11-11.72-.61-5.86-.61-11.72-2.42-5.86-2.42-11.73 3.64-5.86 3.64-11.73-2.55-5.86-2.55-11.72 1.69-5.86 1.69-11.72.32-5.86.32-11.72-3.24-5.86-3.24-11.72 2.66-5.86 2.66-11.72-2.65-5.86-2.65-11.72 3.23-5.86 3.23-11.72-3.69-5.88-3.69-11.74 1.43-5.86 1.43-11.73-1.39-5.86-1.39-11.72 3.87-5.86 3.87-11.72-3.26-5.86-3.26-11.72v-11.72c0-5.86 2.83-5.86 2.83-11.72s-.92-5.86-.92-11.72-.64-5.86-.64-11.72-.54-5.86-.54-11.73-.94-5.86-.94-11.73.2-5.86.2-11.72 3.53-5.86 3.53-11.72-3.41-5.86-3.41-11.72 2-5.86 2-11.72-2.51-5.86-2.51-11.72 1.53-5.86 1.53-11.73.29-5.86.29-11.73v-11.73c0-5.87-.33-5.86-.33-11.72s.54-5.86.54-11.72-1.95-5.86-1.95-11.72v-11.72c0-5.86 1-5.86 1-11.73s-.63-5.86-.63-11.73 2.94-5.86 2.94-11.73-3.65-5.86-3.65-11.72 1.55-5.86 1.55-11.72 2.58-5.86 2.58-11.72-2.95-5.86-2.95-11.73 2-5.86 2-11.73-2.11-5.86-2.11-11.73-.46-5.86-.46-11.72 2.22-5.86 2.22-11.72-.29-5.86-.29-11.72v-11.73c0-5.87.2-5.86.2-11.73s-1.83-5.86-1.83-11.73 1.84-5.86 1.84-11.72-2.82-5.86-2.82-11.72.67-5.86.67-11.73 1-5.86 1-11.73.43-5.86.43-11.73 1.68-5.86 1.68-11.73-2.68-5.86-2.68-11.73-.57-5.86-.57-11.73 3.66-5.86 3.66-11.73-3.36-5.86-3.36-11.73.28-5.86.28-11.73 2.14-5.86 2.14-11.73.05-5.86.05-11.73-.38-5.86-.38-11.73 1-5.86 1-11.73-1-5.86-1-11.73 1.35-5.86 1.35-11.73-.71-5.86-.71-11.73-.58-5.86-.58-11.73-2.18-5.86-2.18-11.73.57-5.86.57-11.73.07-5.86.07-11.73v-11.73c0-5.87-.71-5.86-.71-11.73s.66-5.86.66-11.73.1-5.86.1-11.73.39-5.86.39-11.73-2-5.86-2-11.73.55-5.86.55-11.73 1-5.86 1-11.73v-11.73c0-5.87.35-5.86.35-11.73s-1.76-5.86-1.76-11.73 2.21-5.86 2.21-11.73-2.19-5.86-2.19-11.73 1.67-5.86 1.67-11.73 2.56-5.86 2.56-11.73-3.92-5.86-3.92-11.73 2.18-5.86 2.18-11.73-.79-5.86-.79-11.73-.66-5.86-.66-11.73-.86-5.86-.86-11.73 3.65-5.86 3.65-11.73-2.33-5.86-2.33-11.73.19-5.86.19-11.72-1.31-5.86-1.31-11.72 2-5.86 2-11.73 1.3-5.86 1.3-11.73-3.16-5.86-3.16-11.72.17-5.86.17-11.73 1.78-5.86 1.78-11.73v-11.72c0-5.86-.84-5.86-.84-11.73s.38-5.86.38-11.73-.35-5.86-.35-11.73 2-5.86 2-11.73-1.93-5.86-1.93-11.73-1.22-5.86-1.22-11.73.46-5.86.46-11.73 2.84-5.86 2.84-11.73-.27-5.86-.27-11.73-.46-5.86-.46-11.73-1-5.86-1-11.73 2.11-5.86 2.11-11.73-.74-5.86-.74-11.73-1.89-5.86-1.89-11.73.48-5.86.48-11.73-2.08-5.86-2.08-11.73 4.21-5.86 4.21-11.73-3.84-5.86-3.84-11.73 4-5.86 4-11.73-.95-5.87-.95-11.73-1.31-5.86-1.31-11.73 2.19-5.86 2.19-11.73-2.46-5.86-2.46-11.73 2.33-5.86 2.33-11.73-.65-5.86-.65-11.73-2.17-5.87-2.17-11.73-.28-5.86-.28-11.73 2.09-5.86 2.09-11.73-1.49-5.86-1.49-11.73.32-5.87.32-11.73.49-5.86.49-11.73-1.86-5.87-1.86-11.73.27-5.87.27-11.73.72-5.87.72-11.73 3.66-6.42-.49-10.57-4.69 0-10.55 0-5.86.36-11.72.36-5.86.64-11.72.64-5.86-1.88-11.72-1.88-5.86-1.65-11.72-1.65-5.86 3.56-11.72 3.56-5.86-.24-11.72-.24-5.86-.36-11.72-.36-5.86-1.88-11.72-1.88-5.86 1-11.72 1-5.86 1-11.72 1-5.86-.72-11.72-.72-5.86-2.79-11.72-2.79-5.86-.13-11.72-.13-5.86.68-11.72.68-5.86 1.83-11.72 1.83-5.86-.37-11.72-.37-5.86 1.74-11.72 1.74-5.86-1.24-11.72-1.24-5.86-.32-11.72-.32-5.86-2.5-11.72-2.5-5.86 3-11.72 3-5.86-.82-11.72-.82-5.86-.1-11.72-.1-5.86-1.16-11.72-1.16-5.86-.76-11.72-.76-5.86.65-11.72.65-5.86.75-11.72.75-5.86 2.29-11.72 2.29-5.86-3.52-11.72-3.52-5.86 2.37-11.72 2.37-5.86-.78-11.72-.78-5.86 2.33-11.72 2.33-5.86-2.19-11.72-2.19-5.86-1-11.72-1-5.86 1.76-11.72 1.76-5.86-.49-11.72-.49-5.86.45-11.72.45-5.86-1.5-11.72-1.5-5.86.95-11.72.95-5.86-.92-11.72-.92-5.86-1.37-11.72-1.37-5.86.94-11.72.94-5.86-.22-11.72-.22-5.86-.25-11.72-.25-5.86.65-11.72.65-5.86-1.23-11.72-1.23-5.86.86-11.72.86-5.86 1.7-11.72 1.7-5.86.27-11.72.27-5.86.83-11.72.83-5.86-3.61-11.72-3.61-5.86 3.46-11.72 3.46-5.86-2.23-11.72-2.23-5.86-.65-11.72-.65-5.86-.5-11.72-.5-5.86 3.35-11.72 3.35-5.86-3.13-11.72-3.13-5.86.3-11.72.3-5.86 2.21-11.72 2.21-5.86-2.28-11.72-2.28h-11.72c-5.86 0-5.86.39-11.72.39s-5.86 1-11.72 1-5.86.75-11.72.75-5.86 1.42-11.72 1.42-5.86-1.2-11.72-1.2-5.86-1.94-11.72-1.94-5.86.87-11.72.87-5.86-.27-11.72-.27h-11.72c-5.86 0-5.86.49-11.71.49s-5.86 1.2-11.72 1.2-5.86-1.54-11.72-1.54-5.86.12-11.72.12-5.86-1.28-11.72-1.28-5.86.12-11.72.12-5.86 2.22-11.72 2.22-5.86-.41-11.71-.41-5.86 1-11.71 1h-11.71c-5.85 0-5.86-.79-11.71-.79s-5.86-1.68-11.71-1.68-5.86.43-11.71.43-5.86.7-11.72.7-5.86-2.06-11.72-2.06-5.86 2.31-11.72 2.31-5.86 1.13-11.72 1.13-5.86-3.21-11.72-3.21-5.86 3.36-11.72 3.36-5.86-2.1-11.72-2.1-5.86-.94-11.71-.94-5.86-.09-11.71-.09-5.86.51-11.71.51-5.86.23-11.72.23-5.86 2.55-11.72 2.55-5.86-.06-11.72-.06-5.86-.45-11.72-.45-5.86-.21-11.72-.21-5.86-3.15-11.72-3.15-5.86 4.37-11.72 4.37-5.86-4.06-11.72-4.06-5.86.2-11.72.2-5.86 2.31-11.72 2.31-5.86-2.47-11.72-2.47-5.86.06-11.72.06-5.86 3.22-11.72 3.22-5.86-2.18-11.72-2.18-5.86-.47-11.72-.47-5.86-1-11.72-1-5.86 1.75-11.72 1.75-5.86.57-11.72.57-5.86-1.62-11.72-1.62-5.86.31-11.72.31-5.86.87-11.72.87-5.86.83-11.72.83-5.86-1.16-11.72-1.16-5.86 2.36-11.72 2.36-5.86.27-11.72.27-5.86-2.82-11.72-2.82-5.86 2.67-11.72 2.67-5.86-.18-11.72-.18-5.86-1-11.72-1-5.86-.46-11.72-.46-5.86-.46-11.72-.46-5.86 1.15-11.72 1.15-5.86 1.38-11.72 1.38-5.86-.5-11.72-.5-5.86-2.36-11.72-2.36-5.86 2.76-11.72 2.76-5.86-1.22-11.72-1.22-5.86-1.74-11.72-1.74h-11.72c-5.86 0-5.86 1.3-11.72 1.3s-5.86 1.25-11.72 1.25-5.86-3.77-11.72-3.77-5.86 1-11.72 1-5.86 2.46-11.72 2.46-5.86-1.61-11.72-1.61-5.86-1.8-11.72-1.8-5.86.91-11.72.91-5.86 3-11.72 3-5.86-3.52-11.72-3.52-5.86 1.68-11.72 1.68-5.86 2.13-11.72 2.13-5.86-4.39-11.72-4.39-5.86 1.63-11.72 1.63-5.86-.28-11.72-.28-5.86.09-11.72.09-5.86.17-11.72.17-5.86.83-11.72.83-5.86-2.33-11.72-2.33-5.86.63-11.72.63-5.86 3.22-11.72 3.22-5.86-2.89-11.72-2.89-5.86 2.24-11.72 2.24-5.86-1.87-11.72-1.87-5.86.06-11.72.06-5.86.46-11.72.46-5.86.61-11.72.61-5.86-2.16-11.72-2.16-5.86 2.83-11.72 2.83-5.86-1.11-11.72-1.11-5.86 1.85-11.72 1.85-5.86-2.4-11.72-2.4-5.86.1-11.72.1-5.65 2.82-11.51 2.82-5.86-1.18-11.72-1.18-5.86-.95-11.72-.95-5.86-.42-11.72-.42-5.86-1.71-11.72-1.71-5.86.43-11.72.43-5.86-.21-11.72-.21-5.86 3-11.72 3-5.86-.51-11.72-.51-5.86 1.43-11.72 1.43-5.86.2-11.72.2-5.86-.61-11.72-.61h-11.72c-5.86 0-5.86-1.34-11.72-1.34s-5.86-.73-11.72-.73-5.86 2.72-11.72 2.72-5.86-.37-11.72-.37-5.86-1.6-11.72-1.6-5.86-.61-11.72-.61-5.86-1.92-11.72-1.92-5.86 1.23-11.72 1.23-5.86.58-11.72.58-5.86-1.1-11.72-1.1-5.86-.65-11.72-.65-5.86.36-11.72.36-5.86.4-11.72.4-5.86 1.69-11.72 1.69-5.86.08-11.72.08-5.86.38-11.72.38-5.86-2.48-11.72-2.48-5.86-.25-11.72-.25-5.86 3.4-11.72 3.4-5.86.46-11.72.46-5.86-1.22-11.72-1.22-5.86-1.14-11.72-1.14-5.86-1.59-11.72-1.59-5.86 3.61-11.72 3.61-5.86-.05-11.72-.05-5.86-2-11.72-2-5.86.84-11.72.84-5.86.86-11.72.86-5.86.88-11.72.88-5.86-3.12-11.72-3.12-5.86 2.57-11.72 2.57-5.86-2.86-11.72-2.86-5.86 3.2-11.72 3.2-5.86-2.53-11.72-2.53-5.86 2.57-11.72 2.57-5.86-1.44-11.72-1.44-5.86-.84-11.72-.84-5.86.22-11.72.22-5.86.23-11.72.23-5.86-.77-11.72-.77-5.86 1.13-11.72 1.13-5.86-2.36-11.72-2.36-5.86.53-11.72.53-5.86 1.14-11.72 1.14-5.86 1.92-11.72 1.92-5.86-1.61-11.72-1.61-5.86-1.2-11.72-1.2-5.86.66-11.72.66-5.86 1.93-11.72 1.93-5.86-3-11.73-3-5.86 3.48-11.73 3.48-7.8-6.19-12-2 2.33 6.09 2.33 11.95-4.23 5.86-4.23 11.72.85 5.86.85 11.72 3.07 5.86 3.07 11.72-3.82 5.86-3.82 11.72 3.5 5.86 3.5 11.72-2.33 5.86-2.33 11.72 1.49 5.86 1.49 11.72.53 5.86.53 11.72-1.84 5.86-1.84 11.72v11.72c0 5.86.37 5.86.37 11.72s.1 5.86.1 11.72 2 5.86 2 11.72-3.74 5.86-3.74 11.72 1.24 5.86 1.24 11.72-.84 5.86-.84 11.72 1.58 5.86 1.58 11.72 2.14 5.86 2.14 11.72-1.09 5.86-1.09 11.72.74 5.86.74 11.72-3.54 5.86-3.54 11.72v23.44c0 5.86 3.1 5.86 3.1 11.72s-2.93 5.86-2.93 11.72 2.73 5.86 2.73 11.72-1.13 5.86-1.13 11.72-.75 5.86-.75 11.72-.26 5.86-.26 11.72 1.16 5.86 1.16 11.72-.83 5.86-.83 11.72 1.85 5.86 1.85 11.72.48 5.86.48 11.72-.91 5.86-.91 11.72.79 5.86.79 11.72-2.9 5.86-2.9 11.72 3.37 5.86 3.37 11.72-1.25 5.86-1.25 11.72-.56 5.86-.56 11.72.3 5.86.3 11.72-1.92 5.86-1.92 11.72-.17 5.86-.17 11.72.59 5.86.59 11.72 2.87 5.86 2.87 11.72-.78 5.86-.78 11.72-2 5.86-2 11.72-.69 5.86-.69 11.72 1.59 5.86 1.59 11.72-.93 5.86-.93 11.72.31 5.86.31 11.72.67 5.86.67 11.72.26 5.86.26 11.72-.88 5.86-.88 11.72 2.72 5.86 2.72 11.72-4.15 5.86-4.15 11.72 1.3 5.86 1.3 11.72-.56 5.86-.56 11.72 1.37 5.86 1.37 11.72.39 5.86.39 11.72.45 5.86.45 11.72-2.53 5.86-2.53 11.72 1.22 5.86 1.22 11.72 1.45 5.86 1.45 11.72-2.25 5.93-2.25 11.77 2.61 5.86 2.61 11.72-1.57 5.86-1.57 11.72-2 5.86-2 11.72 1 5.86 1 11.72-.05 5.86-.05 11.72-.37 5.86-.37 11.72 3.59 5.86 3.59 11.72-.45 5.86-.45 11.72-3.07 5.86-3.07 11.72.24 5.86.24 11.72-.52 5.86-.52 11.72 1.68 5.86 1.68 11.72-.19 5.86-.19 11.72-1.42 5.86-1.42 11.72-.2 5.86-.2 11.72v11.72c0 5.86 3.67 5.86 3.67 11.72s-.27 5.86-.27 11.72-2.48 5.86-2.48 11.72v11.72c0 5.86 2 5.86 2 11.72s-.62 5.86-.62 11.72-1.58 5.86-1.58 11.72 2.43 5.86 2.43 11.72-.18 5.86-.18 11.72-2.7 5.86-2.7 11.72 3.2 5.86 3.2 11.72-2.3 5.86-2.3 11.72-.52 5.86-.52 11.72 3.36 5.86 3.36 11.72-1.09 5.86-1.09 11.72-.87 5.86-.87 11.72-2 5.86-2 11.72 3.6 5.86 3.6 11.72-2.28 5.86-2.28 11.72 1 5.86 1 11.72-2.71 5.86-2.71 11.72 4.41 5.86 4.41 11.72-2.81 5.86-2.81 11.72 1.62 5.86 1.62 11.72-3.29 5.86-3.29 11.72 3.6 5.86 3.6 11.72.44 5.86.44 11.72-.18 5.86-.18 11.72-2 5.86-2 11.72 2 5.86 2 11.72-2.23 5.86-2.23 11.72.92 5.86.92 11.72.71 5.86.71 11.72.3 5.86.3 11.72-2.16 5.86-2.16 11.72-.41 5.86-.41 11.72 3.23 5.86 3.23 11.72-1.66 5.86-1.66 11.72.92 5.86.92 11.72-1.84 5.86-1.84 11.72-1.2 5.86-1.2 11.72 1.67 5.86 1.67 11.72-2.12 5.86-2.12 11.72.81 5.86.81 11.72S-665-922-665-916.09s-2.45 5.86-2.45 11.72 1.14 5.86 1.14 11.72 1.11 5.86 1.11 11.72-2 5.86-2 11.72.54 5.86.54 11.72v11.72c0 5.86-1.13 5.86-1.13 11.72s1.19 5.86 1.19 11.72-1.63 5.86-1.63 11.72 1.63 5.86 1.63 11.72.17 5.86.17 11.72 1.16 5.86 1.16 11.72-2 5.86-2 11.72-.55 5.86-.55 11.72v11.72c0 5.86-1 5.86-1 11.72s2.55 5.86 2.55 11.72-.89 5.86-.89 11.72 1.38 5.86 1.38 11.72.05 5.86.05 11.72-3.21 5.86-3.21 11.72 2.59 5.86 2.59 11.72-1.74 5.86-1.74 11.72 2.57 5.86 2.57 11.72-1.71 5.86-1.71 11.72-1.77 5.93-1.77 11.79 2.36 5.86 2.36 11.72-1.33 5.86-1.33 11.72 2.26 5.86 2.26 11.72-.5 5.86-.5 11.72.81 5.86.81 11.72-1.49 5.86-1.49 11.72.57 5.86.57 11.72 1.21 5.86 1.21 11.72-2 5.86-2 11.72 1.88 5.86 1.88 11.72-2.6 5.86-2.6 11.72 2.21 5.86 2.21 11.72.26 5.86.26 11.72-3.65 5.86-3.65 11.72 2.69 5.86 2.69 11.72-1 5.86-1 11.72 2 5.86 2 11.72-2.55 5.86-2.55 11.72 2.72 5.86 2.72 11.72-1.23 5.86-1.23 11.72-.29 5.86-.29 11.72.32 5.86.32 11.72-1.57 5.86-1.57 11.72 2.3 5.86 2.3 11.72-2.29 5.86-2.29 11.72-.44 5.86-.44 11.72 1.6 5.86 1.6 11.72.8 5.86.8 11.72-.91 5.86-.91 11.72 1.54 5.86 1.54 11.72-2.67 5.86-2.67 11.72.79 5.86.79 11.72 1 5.86 1 11.72-1.13 5.86-1.13 11.72v11.72c0 5.86 2.07 5.86 2.07 11.72s-2.73 5.86-2.73 11.72v11.72c0 5.86 1.26 5.86 1.26 11.72s-1.54 5.86-1.54 11.72 1.82 5.86 1.82 11.72 1.49 5.86 1.49 11.72-2.81 5.86-2.81 11.72-1.32 5.86-1.32 11.72 1.18 5.86 1.18 11.72 1.08 5.86 1.08 11.72 1.53 5.86 1.53 11.72.55 5.86.55 11.72-.49 5.86-.49 11.72-2.71 5.86-2.71 11.72.27 5.86.27 11.72 2.37 5.86 2.37 11.72.61 5.86.61 11.72-3.17 5.86-3.17 11.72 1 5.86 1 11.72-1.57 5.86-1.57 11.72S-669 51-669 56.87s3.38 5.86 3.38 11.72-.75 5.86-.75 11.72S-665 86.17-665 92s.1 5.86.1 11.72-1.19 5.86-1.19 11.72-2.44 5.86-2.44 11.72 2.25 5.86 2.25 11.72-2.28 5.86-2.28 11.72.56 5.86.56 11.72-.36 5.86-.36 11.72 1.29 5.86 1.29 11.72-1.69 5.86-1.69 11.72.92 5.86.92 11.72 1.58 5.86 1.58 11.72-1.5 5.86-1.5 11.72 1.26 5.86 1.26 11.72-.41 5.86-.41 11.72 2.36 5.86 2.36 11.72-.74 5.86-.74 11.72-2.92 5.86-2.92 11.72 3.5 5.86 3.5 11.72-3.31 5.86-3.31 11.72.82 5.86.82 11.72-1.57 5.86-1.57 11.72.4 5.86.4 11.72-.26 5.86-.26 11.72 2.25 5.86 2.25 11.72-.9 5.86-.9 11.72-1.27 5.86-1.27 11.72 2.84 5.86 2.84 11.72-1.5 5.86-1.5 11.72 1.58 5.86 1.58 11.72-.87 5.86-.87 11.72 1 5.86 1 11.72-3.15 5.86-3.15 11.72 3.27 5.86 3.27 11.72-.71 5.86-.71 11.72.5 5.86.5 11.72-1.85 5.86-1.85 11.72.12 5.86.12 11.72 2 5.86 2 11.72-3.51 5.86-3.51 11.72 3.67 5.86 3.67 11.72-2.22 5.86-2.22 11.72 1 5.86 1 11.72-1.64 5.86-1.64 11.72-.5 5.86-.5 11.72 2.64 5.86 2.64 11.72.59 5.86.59 11.72-3.42 5.86-3.42 11.72 1.78 5.86 1.78 11.72 1 5.86 1 11.72-2 5.86-2 11.72 3.1 5.86 3.1 11.72-3.8 5.86-3.8 11.72 3.78 5.86 3.78 11.72-.9 5.86-.9 11.72.59 5.86.59 11.72-3.32 5.86-3.32 11.72.17 5.86.17 11.72-.31 5.86-.31 11.72.47 5.86.47 11.72 1.56 5.86 1.56 11.72-1 5.86-1 11.72-1.06 5.86-1.06 11.72-.59 5.86-.59 11.72 4.05 5.86 4.05 11.72-3.64 5.86-3.64 11.72.51 5.86.51 11.72 2.56 5.86 2.56 11.72-.66 5.86-.66 11.72 1.57 5.86 1.57 11.72-1.25 5.86-1.25 11.72-1.2 5.86-1.2 11.72-.75 5.86-.75 11.72 2.67 5.86 2.67 11.72-2.86 5.86-2.86 11.72 1.53 5.86 1.53 11.72 1.4 5.86 1.4 11.72-1.95 5.86-1.95 11.72 1.52 5.86 1.52 11.72-.62 5.86-.62 11.72 1.23 5.86 1.23 11.72-1.72 5.86-1.72 11.72-1.08 5.86-1.08 11.72 3.18 5.86 3.18 11.72-1.61 5.86-1.61 11.72-2.74 5.86-2.74 11.72 1.1 5.86 1.1 11.72 1.73 5.86 1.73 11.72-.7 5.86-.7 11.72-.91 5.86-.91 11.72-.34 5.86-.34 11.72-1 5.86-1 11.72 3.83 5.86 3.83 11.72-.59 5.86-.59 11.72-1.6 5.86-1.6 11.72v11.72c0 5.86.63 5.86.63 11.72s-1.56 5.86-1.56 11.72 1.7 5.86 1.7 11.72-.44 5.86-.44 11.72.2 5.86.2 11.72-.55 5.86-.55 11.72 1.55 5.86 1.55 11.72.61 5.86.61 11.72-2 5.86-2 11.72 1.15 5.86 1.15 11.72 1.39 5.86 1.39 11.72-2.35 5.86-2.35 11.72 1.24 5.86 1.24 11.72-2.74 5.86-2.74 11.72 1.11 5.86 1.11 11.72 2.39 5.86 2.39 11.72-1.13 5.86-1.13 11.72.72 5.86.72 11.72-.51 5.86-.51 11.72-2.95 5.86-2.95 11.72 2.62 5.86 2.62 11.72 1 5.86 1 11.72-2.41 5.86-2.41 11.72 1.46 5.86 1.46 11.72-1.86 5.86-1.86 11.72-.27 5.86-.27 11.72.28 5.86.28 11.72 2.89 5.86 2.89 11.72-1.35 5.86-1.35 11.72.85 5.86.85 11.72-.62 5.86-.62 11.72-1.36 5.86-1.36 11.72 2.37 5.86 2.37 11.72.67 5.86.67 11.72-.75 5.86-.75 11.72.43 5.86.43 11.72-3.23 5.86-3.23 11.72-.36 5.86-.36 11.72.2 5.86.2 11.72v11.72c0 5.86 2.33 5.86 2.33 11.72s-.94 5.86-.94 11.72.36 5.86.36 11.72.08 5.86.08 11.72-2.21 5.86-2.21 11.72.32 5.86.32 11.72-.19 5.86-.19 11.72 1.23 5.86 1.23 11.72 2.24 5.86 2.24 11.72-3 5.86-3 11.72 3.79 5.86 3.79 11.72-2.09 5.86-2.09 11.72 1.23 5.86 1.23 11.72.13 5.86.13 11.72-.32 5.86-.32 11.72-2.46 5.86-2.46 11.72 1.14 5.86 1.14 11.72.78 5.86.78 11.72.37 5.86.37 11.72-2.09 5.86-2.09 11.72-.68 5.86-.68 11.72.84 5.86.84 11.72.88 5.86.88 11.72-.16 5.86-.16 11.72-.58 5.86-.58 11.72 2.78 5.86 2.78 11.72-4.22 6.08-4.22 11.94-.12 5.86-.12 11.72.51 5.86.51 11.72 2.94 5.86 2.94 11.72-.18 5.86-.18 11.72-1.09 5.86-1.09 11.72-1.6 5.86-1.6 11.72 1.66 5.86 1.66 11.72.55 5.86.55 11.72-1.2 5.86-1.2 11.72.64 5.86.64 11.72 2.17 5.86 2.17 11.72-.24 5.86-.24 11.72.06 5.86.06 11.72-2.23 5.86-2.23 11.72 2.43 5.86 2.43 11.72-.64 5.86-.64 11.72.17 5.86.17 11.72-2.57 5.86-2.57 11.72 2 5.86 2 11.72-2.59 5.86-2.59 11.72.83 5.86.83 11.72-.26 5.86-.26 11.72.4 5.86.4 11.72.42 5.86.42 11.72 1.11 5.86 1.11 11.72-1.94 5.86-1.94 11.72.87 5.86.87 11.72-.9 5.86-.9 11.72 2.9 5.86 2.9 11.72-2.69 5.86-2.69 11.72-.67 5.86-.67 11.72.25 5.86.25 11.72 1.12 5.86 1.12 11.72 1.77 5.86 1.77 11.72.44 5.86.44 11.72-1.84 5.86-1.84 11.72-1.12 5.86-1.12 11.72 1.24 5.86 1.24 11.72v11.72c0 5.86 1 5.86 1 11.72s-3.09 5.86-3.09 11.72 2.86 5.86 2.86 11.72-2.82 5.86-2.82 11.72.26 5.86.26 11.72 2.47 5.86 2.47 11.72 1 5.86 1 11.72v11.72c0 5.86-1.73 5.86-1.73 11.72s-2.35 5.86-2.35 11.72.64 5.86.64 11.72-.41 5.86-.41 11.72.78 5.86.78 11.72-1.17 5.86-1.17 11.72.76 5.86.76 11.72.72 5.86.72 11.72 2.67 5.86 2.67 11.72-3 5.86-3 11.72 2.46 5.86 2.46 11.72-2.7 5.86-2.7 11.72 1 5.86 1 11.72 2 5.86 2 11.72-1.27 5.86-1.27 11.72-2 5.86-2 11.72.46 5.86.46 11.72 2.28 5.86 2.28 11.72-2.81 5.86-2.81 11.72.89 5.86.89 11.72-.78 5.86-.78 11.72.76 5.86.76 11.72.28 5.86.28 11.72 2.68 5.86 2.68 11.72-2 5.86-2 11.72 1.49 5.86 1.49 11.72-.77 5.86-.77 11.72-2.61 5.86-2.61 11.72 2.32 5.86 2.32 11.72-2.18 5.86-2.18 11.72 1.72 5.86 1.72 11.72-.69 5.86-.69 11.72.58 5.86.58 11.72 1.87 5.86 1.87 11.72-.76 5.86-.76 11.72-.79 5.86-.79 11.72-1.32 5.86-1.32 11.72 1.25 5.86 1.25 11.72-1 5.86-1 11.72-1.26 5.86-1.26 11.72 1.92 5.86 1.92 11.72 1.65 5.86 1.65 11.72-1 5.86-1 11.72-.41 5.86-.41 11.72 1.63 5.86 1.63 11.72-.11 5.86-.11 11.72-1 5.86-1 11.72-3.14 5.86-3.14 11.72 4.19 5.86 4.19 11.72-3.67 5.86-3.67 11.72 3.33 5.86 3.33 11.72-1.2 5.86-1.2 11.72-.41 5.86-.41 11.72.3 5.86.3 11.72.35 5.86.35 11.72-.33 5.86-.33 11.72-1.34 5.86-1.34 11.72.83 5.86.83 11.72-.08 5.86-.08 11.72.58 5.86.58 11.72-.44 5.86-.44 11.72 2.21 5.86 2.21 11.72-3.88 5.86-3.88 11.72.42 5.86.42 11.73 3.55 5.86 3.55 11.72-3.61 5.86-3.61 11.72 1.55 5.86 1.55 11.72 1.88 5.86 1.88 11.72v11.72c0 5.86-1 5.86-1 11.72s.25 5.86.25 11.72v11.72c0 5.86-.74 5.86-.74 11.72s-1.66 5.86-1.66 11.72 3.38 5.86 3.38 11.72-1.58 5.86-1.58 11.72-2.29 5.86-2.29 11.72 3.29 5.86 3.29 11.72-.46 5.86-.46 11.72-2.18 5.86-2.18 11.72 2.7 5.86 2.7 11.72-1.53 5.86-1.53 11.72 2 5.86 2 11.72-2.77 5.86-2.77 11.72 2.14 5.86 2.14 11.72-2.61 6.22-2.61 12.09 3.42 5.86 3.42 11.72-1.51 5.86-1.51 11.72-2 5.86-2 11.72.86 5.86.86 11.72-1.44 5.86-1.44 11.72 4 5.86 4 11.72-3.61 5.86-3.61 11.72-.68 5.86-.68 11.72.27 5.86.27 11.72 2.73 5.86 2.73 11.72-3 5.86-3 11.72.69 5.86.69 11.72-.66 5.86-.66 11.72 3.53 5.86 3.53 11.73-3.06 5.86-3.06 11.72.68 5.86.68 11.72 2.67 5.86 2.67 11.72.39 5.86.39 11.72-2.52 5.86-2.52 11.72 1.9 5.86 1.9 11.72.86 5.86.86 11.72-2.44 5.86-2.44 11.72 1.38 5.86 1.38 11.72.13 5.86.13 11.72-.83 5.86-.83 11.72-2.23 5.86-2.23 11.72 2.63 5.86 2.63 11.72.55 5.86.55 11.72-.42 5.86-.42 11.72-1.32 5.86-1.32 11.73 2.31 5.86 2.31 11.72-.05 5.86-.05 11.72-.51 5.86-.51 11.72-3 5.86-3 11.72 1.93 5.86 1.93 11.72-2.17 5.86-2.17 11.72-.39 5.86-.39 11.72 4.21 5.86 4.21 11.72-1.05 5.86-1.05 11.72-.44 5.86-.44 11.72v11.72c0 5.86.54 5.86.54 11.72s-.2 5.86-.2 11.72-2.78 5.86-2.78 11.73-.2 5.86-.2 11.73 4.1 5.86 4.1 11.72-2.68 5.86-2.68 11.72.59 5.86.59 11.72 1.72 5.86 1.72 11.72-.25 5.86-.25 11.72-3.48 5.86-3.48 11.72 3.75 5.86 3.75 11.72-3.22 5.86-3.22 11.72.2 5.86.2 11.72-.9 5.86-.9 11.72.54 5.86.54 11.72 2.8 5.86 2.8 11.72-2.44 5.86-2.44 11.73 3.21 5.86 3.21 11.72-1.61 5.86-1.61 11.72-.54 5.86-.54 11.72.49 5.86.49 11.72 1.84 5.86 1.84 11.72-2.17 5.86-2.17 11.72-1.48 5.86-1.48 11.72 1.58 5.86 1.58 11.72-.1 5.86-.1 11.72 1.12 5.86 1.12 11.72.14 5.86.14 11.72-2.62 5.86-2.62 11.73 1.42 5.86 1.42 11.73-.88 5.86-.88 11.72 1.23 5.86 1.23 11.72 1.24 5.86 1.24 11.72.66 5.86.66 11.72-.26 5.86-.26 11.72-1.88 5.86-1.88 11.72-1.62 5.86-1.62 11.72 1.41 5.86 1.41 11.72 1.64 5.86 1.64 11.72-.92 5.86-.92 11.73-2.64 5.86-2.64 11.73 2.59 5.86 2.59 11.72-.72 5.86-.72 11.72-1.81 5.86-1.81 11.72-.14 5.86-.14 11.72 1.87 5.86 1.87 11.72.44 5.86.44 11.72-1.11 5.86-1.11 11.72 2 5.86 2 11.72.82 5.86.82 11.72-3.64 5.86-3.64 11.73 2.29 5.86 2.29 11.73-.54 5.86-.54 11.72-.4 5.86-.4 11.72 2.62 5.86 2.62 11.72-1.52 5.86-1.52 11.72-.14 5.86-.14 11.72 1.23 5.86 1.23 11.72-3.28 5.86-3.28 11.72 3.47 5.86 3.47 11.72-2.79 5.86-2.79 11.73-.32 5.86-.32 11.73 2.74 5.86 2.74 11.72-2.28 5.86-2.28 11.72 2.57 5.86 2.57 11.72-.91 5.86-.91 11.72-1.32 5.86-1.32 11.72.34 5.86.34 11.72-1.17 5.86-1.17 11.72 2.09 5.86 2.09 11.73-3 5.86-3 11.73 2.71 5.86 2.71 11.72 1 5.86 1 11.72-3.74 5.86-3.74 11.72 1.56 5.86 1.56 11.72.14 5.86.14 11.72-1.4 5.86-1.4 11.72-.41 5.86-.41 11.73 4.26 5.86 4.26 11.73-4.2 5.86-4.2 11.73 1.78 5.86 1.78 11.72-1.9 5.86-1.9 11.72 2.84 5.86 2.84 11.72 1.28 5.86 1.28 11.72-3.62 5.86-3.62 11.72.72 5.86.72 11.73 2.67 5.86 2.67 11.73-.93 5.86-.93 11.73-2.89 5.86-2.89 11.72 3.32 5.86 3.32 11.72-2.59 5.86-2.59 11.72 1 5.86 1 11.72-1.35 5.86-1.35 11.72.44 5.86.44 11.73.9 5.86.9 11.73-1.27 5.86-1.27 11.73 1.66 5.86 1.66 11.72.87 5.86.87 11.72-2.45 5.86-2.45 11.72.52 5.86.52 11.72-.9 5.86-.9 11.73 3.09 5.86 3.09 11.73-2.45 5.86-2.45 11.73-.52 5.86-.52 11.72-.15 5.86-.15 11.72.84 5.86.84 11.72.3 5.86.3 11.72-.59 5.86-.59 11.73 2.47 5.86 2.47 11.73-2.48 5.86-2.48 11.72 2.21 5.86 2.21 11.72-.92 5.86-.92 11.72.5 5.86.5 11.72-.59 5.86-.59 11.72-1.87 6.22-1.87 12.11.46 5.86.46 11.72.56 5.86.56 11.72 2.95 5.86 2.95 11.72-.56 5.86-.56 11.72-2.86 5.86-2.86 11.73 2.56 5.86 2.56 11.73.68 5.86.68 11.72-2.83 5.86-2.83 11.72-.65 5.86-.65 11.72.62 5.86.62 11.72 3 5.86 3 11.72-2.81 5.86-2.81 11.72 1.53 5.86 1.53 11.72-.35 5.86-.35 11.72-.19 5.86-.19 11.72-.69 5.86-.69 11.73-1 5.86-1 11.73 1.4 5.86 1.4 11.72.71 5.86.71 11.72-.11 5.86-.11 11.72.76 5.86.76 11.72.46 5.86.46 11.72.31 5.86.31 11.72-1.7 5.86-1.7 11.72-1 5.86-1 11.73-1.28 5.86-1.28 11.73 2.68 5.86 2.68 11.72-2.4 5.86-2.4 11.72 2.3 5.86 2.3 11.72 1.32 5.86 1.32 11.72-2.85 5.86-2.85 11.72-1 5.86-1 11.72 1 5.86 1 11.72 2.52 5.86 2.52 11.73-3.4 5.86-3.4 11.73 2.93 5.86 2.93 11.72.35 5.86.35 11.72-2.44 5.86-2.44 11.72 3.24 5.86 3.24 11.72-1.48 5.86-1.48 11.72-2 5.86-2 11.73 1.49 5.86 1.49 11.73-.74 5.86-.74 11.73-.81 5.86-.81 11.72.55 5.86.55 11.72 1.66 5.86 1.66 11.72.57 5.86.57 11.72-2.78 5.86-2.78 11.73 2.39 5.86 2.39 11.73-1.75 5.86-1.75 11.73 2.08 5.86 2.08 11.72.06 5.86.06 11.72-3.15 5.86-3.15 11.72-.14 5.86-.14 11.73 3.15 5.86 3.15 11.73-2.21 5.86-2.21 11.73-.79 5.86-.79 11.72 1.37 5.86 1.37 11.72 1 5.86 1 11.72-2.29 5.86-2.29 11.73.72 5.86.72 11.73 2.24 5.86 2.24 11.73-.9 5.86-.9 11.72-2 5.86-2 11.72 1.32 5.86 1.32 11.73 1.35 5.86 1.35 11.73 1.07 5.86 1.07 11.73-.21 5.86-.21 11.73-.15 5.86-.15 11.73-.65 5.86-.65 11.73-.19 5.86-.19 11.73-1.14 5.86-1.14 11.73 2.45 5.86 2.45 11.73-1 5.86-1 11.73 1 5.86 1 11.73-4.31 5.86-4.31 11.73 1 5.86 1 11.73 3.14 5.86 3.14 11.73-4.18 5.86-4.18 11.73 2.21 5.86 2.21 11.73.75 5.86.75 11.73-.18 5.86-.18 11.73-2.17 5.86-2.17 11.73 2.65 5.86 2.65 11.73-2 5.86-2 11.73-.93 5.86-.93 11.73 1.35 5.86 1.35 11.73.46 5.86.46 11.73 1.84 5.86 1.84 11.73-3.47 5.86-3.47 11.73 2.8 5.86 2.8 11.73.17 5.86.17 11.73.45 5.86.45 11.73-3.85 5.86-3.85 11.73 1.05 5.86 1.05 11.73 1.29 5.86 1.29 11.73 1.39 5.86 1.39 11.73.09 5.86.09 11.73-3.57 5.86-3.57 11.73 3.43 5.86 3.43 11.73-2.39 5.86-2.39 11.73 1.78 5.86 1.78 11.73-.81 5.86-.81 11.73-.43 5.86-.43 11.73 1.85 5.86 1.85 11.73-.41 5.86-.41 11.73-.89 5.86-.89 11.72-2.32 5.86-2.32 11.72.84 5.86.84 11.73-1.06 5.86-1.06 11.73 2.73 5.86 2.73 11.72-2.71 5.86-2.71 11.73 4.1 5.86 4.1 11.73-2.51 5.86-2.51 11.72-1.5 5.86-1.5 11.73 2.57 5.86 2.57 11.73-2.15 5.86-2.15 11.73 3.05 5.86 3.05 11.73-2.32 5.86-2.32 11.73 2.84 5.86 2.84 11.73-3.15 5.86-3.15 11.73 1.64 5.86 1.64 11.73-2.5 5.86-2.5 11.73 2 5.86 2 11.73.2 5.86.2 11.73-1.88 5.86-1.88 11.73.55 5.86.55 11.73.82 5.86.82 11.73-1.57 5.86-1.57 11.73 1.24 5.86 1.24 11.73.91 5.86.91 11.73-.65 5.86-.65 11.73 1.87 5.86 1.87 11.73-1.84 5.87-1.84 11.73 2.72 5.86 2.72 11.73-3.08 5.86-3.08 11.73.64 5.86.64 11.73-.19 5.86-.19 11.73-.39 5.86-.39 11.73 1.91 5.87 1.91 11.73-.51 5.86-.51 11.73 1.6 5.86 1.6 11.73-.83 5.86-.83 11.73-3.2 5.87-3.2 11.73 1.39 5.86 1.39 11.73.31 5.87.31 11.73-1.88 5.87-1.88 11.73 4.5 6.28 3.24 12c-1.27 6.05-5.44 7.29-1.3 11.45z"/></clipPath><clipPath id="clip-path-4"><path class="cls-1" d="M281.45 590.14c3.9 0 7.75-.84 11.61-1s7.67-1.28 11.52-1.61 7.65-.93 11.49-1.43 7.74-.41 11.55-1.08 7.59-1.46 11.37-2.3 8.07.3 11.81-.7 7.26-3 11-4.13 7.33-2.6 11-3.92 7.85-1.33 11.43-2.82 5.81-6.06 9.32-7.7 18.89-5.74 22.24-7.68 4.75-7.12 8-9.21 7-3.36 10.19-5.58 5.93-4.94 9-7.31 5.92-4.91 8.89-7.41 6.07-4.74 8.94-7.36 7-3.84 9.79-6.59 13.7-13.86 16.2-16.84 3.63-7.06 6-10.14 12-15.25 14.11-18.53 3.1-7.18 5-10.55 6.18-5.48 8-8.93 2.7-7.39 4.35-10.91 4.36-6.63 5.85-10.23 1.09-8 2.42-11.61 3-7.19 4.17-10.9 2.09-7.49 3.09-11.26 3.71-7.14 4.55-10.94-.46-8 .21-11.89 2.92-7.44 3.42-11.3 1.35-7.74 1.68-11.62-1.59-7.92-1.42-11.81 1.29-7.75 1.29-11.65-.79-7.8-1-11.66.79-7.89.45-11.75-1.27-7.75-1.77-11.59-1.92-7.61-2.59-11.42-1.31-7.69-2.14-11.46-3.27-7.19-4.27-10.93-3.06-7.13-4.22-10.83-1-7.8-2.33-11.44-2.69-7.26-4.18-10.84-6-18.66-7.82-22.09-3.65-6.94-5.6-10.3-13.5-14.39-15.73-17.56-3.83-6.73-6.19-9.81-2.76-7.74-5.26-10.71-6.82-4.35-9.44-7.21-5.14-5.77-7.89-8.51-4.85-6.14-7.71-8.76-6.56-4.26-9.54-6.76-4.88-6.3-8-8.67-5.59-5.6-8.77-7.83-7.63-2.61-10.91-4.7-6.81-3.69-10.17-5.64-6-5.16-9.46-7-6.66-4.14-10.18-5.79-7.63-2-11.22-3.49-6.49-4.84-10.15-6.17-8.53 1-12.24-.21-6.46-5.57-10.22-6.57-8.07.25-11.88-.59S331.87 59.68 328 59s-7.9.25-11.77-.25-7.83.78-11.72.45-7.6-1.52-11.5-1.69-7.7 1-11.6 1-7.84-3.6-11.71-3.43-7.7 1.92-11.51 2.28-8-1.44-11.86-.94-7.56 2.46-11.37 3.13-7.69 1.37-11.47 2.21-7.15 3.49-10.89 4.49-7.25 2.72-10.94 3.88-18.09 6.65-21.66 8.14-8.25.49-11.77 2.13-6.53 4.37-10 6.16-7.12 3.19-10.47 5.13-7.32 3-10.59 5.09-6.05 5-9.23 7.23-5.05 6.21-8.13 8.58-6.55 4.17-9.52 6.67-6.78 4-9.64 6.67-6.54 4.48-9.28 7.23-3.18 7.72-5.81 10.58-4.87 6-7.36 8.95-4.79 6-7.16 9.09-4.89 6-7.13 9.13-4.09 6.52-6.18 9.8-6.57 5.07-8.52 8.44-3.07 7.21-4.86 10.65-4.23 6.6-5.87 10.12-3.73 6.9-5.22 10.49-.08 8.3-1.41 12-4.2 6.74-5.37 10.45 0 8-1 11.8-1.79 7.45-2.63 11.25-2.14 7.4-2.81 11.23-2.37 7.44-2.87 11.3-1.32 7.64-1.65 11.53 0 7.75-.13 11.65-.39 7.67-.39 11.57 1.61 7.7 1.78 11.56-3.79 8-3.46 11.9 1.11 7.8 1.61 11.63 5.13 7.08 5.8 10.89.88 7.67 1.72 11.45-1.76 8.44-.76 12.18 5.44 6.53 6.6 10.22 2 7.47 3.33 11.11 3 7.1 4.52 10.68 2.39 7.39 4 10.9 4 6.64 5.78 10.08.43 8.65 2.38 12 4.23 6.63 6.32 9.9 6.38 5.1 8.63 8.31 5.65 5.41 8 8.49 3.52 7.07 6 10 3.25 7.53 5.87 10.39 7.31 3.8 10.05 6.54 3.58 7.53 6.45 10.15 5.85 5.25 8.82 7.74 17.42 9.25 20.6 11.48 4.67 7 7.94 9.09 27.4 15.06 30.92 16.7 7.93 1.29 11.53 2.78 17.92 7.44 21.63 8.61 7.07 3.6 10.83 4.61 8.05-.2 11.85.64 7.25 3.36 11.09 4 8-.78 11.83-.28 7.63 1.29 11.51 1.62 7.67 1.38 11.57 1.55 7.8.03 11.71.03z"/></clipPath></defs><title>Circle</title><path class="cls-4 cls-5 cls-6" d="M6.71 48.45c4.16-4.16 4.29-1.9 10.17-1.9s5.88-1.2 11.76-1.2S34.51 49 40.39 49s5.88-3.24 11.76-3.24S58 48.64 63.9 48.64s5.88-3.47 11.75-3.47 5.88.29 11.76.29 5.88-.35 11.76-.35 5.88.1 11.75.1 5.88 3.2 11.76 3.2 5.88-1.48 11.76-1.48 5.88-.47 11.76-.47 5.88 2.4 11.76 2.4 5.88-2.58 11.76-2.58 5.88.15 11.76.15 5.88.2 11.76.2 5.88.54 11.76.54 5.88.19 11.76.19 5.88-.25 11.76-.25 5.88-.44 11.76-.44 5.88-.32 11.76-.32 5.88-1.25 11.76-1.25h11.76c5.88 0 5.88 1.74 11.76 1.74s5.88-.29 11.76-.29 5.88-1.17 11.76-1.17 5.88 3.7 11.76 3.7 5.88-1.5 11.76-1.5S340.2 49 346.08 49s5.88-1.55 11.76-1.55S363.72 49 369.6 49h11.76c5.88 0 5.88-1.41 11.76-1.41s5.88.1 11.76.1 5.88.83 11.76.83 5.88-.69 11.76-.69 5.88.72 11.76.72 5.88.23 11.76.23 5.88-2.83 11.76-2.83 5.88 1.52 11.76 1.52 5.88-1.76 11.76-1.76 5.88.12 11.76.12 5.88 1.45 11.76 1.45 5.88 1 11.76 1 5.88.38 11.76.38 5.88-.31 11.77-.31 8.67-6.66 12.83-2.5-1.08 6.94-1.08 12.82-2.16 5.88-2.16 11.76 4.4 5.83 4.4 11.71-4.46 5.86-4.46 11.76v11.76c0 5.88 1.2 5.88 1.2 11.75s-.06 5.88-.06 11.76S558 135 558 140.92s.11 5.88.11 11.75 1.84 5.88 1.84 11.76-.85 5.88-.85 11.76-.14 5.88-.14 11.76-3.22 5.88-3.22 11.76v11.76c0 5.88 1.68 5.88 1.68 11.76s-.29 5.88-.29 11.76 2.85 5.88 2.85 11.76-1.66 5.88-1.66 11.76 1.69 5.88 1.69 11.76-3 5.88-3 11.76 2.49 5.88 2.49 11.76-3.5 5.85-3.5 11.73 3.65 5.88 3.65 11.76-2.4 5.88-2.4 11.76-1.61 5.88-1.61 11.76 3.42 5.88 3.42 11.76-1.25 5.88-1.25 11.76.38 5.88.38 11.76.95 5.88.95 11.76-1 5.88-1 11.76-.77 5.88-.77 11.76 1.55 5.88 1.55 11.76-2.39 5.88-2.39 11.76 3.11 5.88 3.11 11.76.1 5.88.1 11.76.22 5.88.22 11.76-.18 5.88-.18 11.76-2.61 5.88-2.61 11.76 2.37 5.88 2.37 11.76-3.79 5.88-3.79 11.76.61 5.88.61 11.76 3.4 5.88 3.4 11.76-1.13 5.88-1.13 11.76-2.63 5.87-2.63 11.75-.46 5.88-.46 11.76 3 5.88 3 11.77 2.31 6.47-1.85 10.63-4.75-1-10.62-1-5.88.92-11.76.92-5.88.6-11.76.6-5.88 2.53-11.76 2.53-5.88-2.15-11.76-2.15-5.88.87-11.75.87-5.88-.65-11.76-.65-5.88 2.17-11.76 2.17-5.88-3-11.75-3-5.88 1.08-11.76 1.08-5.88-.53-11.76-.53-5.88 2.34-11.76 2.34-5.88-3.47-11.76-3.47-5.88 1.19-11.76 1.19-5.88.44-11.76.44-5.88 1.63-11.76 1.63-5.88-2.88-11.76-2.88-5.88 3.16-11.76 3.16-5.88-2.81-11.76-2.81-5.88-.24-11.76-.24-5.88-.93-11.76-.93-5.88 2.07-11.76 2.07-5.88 1.48-11.76 1.48-5.89-1.21-11.77-1.21-5.88-2.51-11.76-2.51S258 599 252.08 599s-5.88 1.54-11.76 1.54-5.88-1.29-11.76-1.29-5.88.82-11.76.82-5.88 1-11.76 1-5.88.55-11.76.55-5.88-.48-11.76-.48-5.88-.94-11.76-.94-5.88 1-11.76 1-5.88-3.35-11.76-3.35-5.88.07-11.76.07-5.88-.1-11.76-.1-5.88 3.41-11.76 3.41-5.88-.31-11.76-.31-5.88-2.24-11.76-2.24-5.88-.23-11.76-.23-5.88.1-11.76.1-5.88 2.13-11.76 2.13-5.88-1.53-11.76-1.53S34.53 598 28.65 598s-5.88.93-11.77.93-6.55 3.68-10.71-.48-2-4.82-2-10.7.33-5.88.33-11.76v-11.76c0-5.88 2.13-5.88 2.13-11.76s.41-5.88.41-11.76-3.7-5.85-3.7-11.71 3-5.88 3-11.76-2.71-5.88-2.71-11.76.86-5.88.86-11.75 1-5.88 1-11.76-2-5.88-2-11.76 3.16-5.88 3.16-11.76-3.32-5.88-3.32-11.76 1-5.88 1-11.76 1.4-5.88 1.4-11.76 1.1-5.88 1.1-11.76-.67-5.88-.67-11.76 1-5.88 1-11.76-2.64-5.89-2.64-11.75 2.84-5.88 2.84-11.76-2.81-5.88-2.81-11.76-.84-5.88-.84-11.76 3.35-5.86 3.35-11.75-2.41-5.88-2.41-11.76.88-5.88.88-11.76.47-5.88.47-11.76.15-5.88.15-11.76-.31-5.88-.31-11.76.53-5.88.53-11.76-.14-5.88-.14-11.76-3.1-5.87-3.1-11.79 1.46-5.88 1.46-11.76 1.84-5.88 1.84-11.76S6 205.64 6 199.76 4 193.88 4 188s.4-5.88.4-11.76 2.47-5.88 2.47-11.76-2.52-5.88-2.52-11.76.74-5.88.74-11.76 1.12-5.88 1.12-11.76-1.77-5.88-1.77-11.76 1.26-5.88 1.26-11.76-2.65-5.88-2.65-11.76S4.66 88 4.66 82.16s-.82-5.88-.82-11.76 2.64-6 1.8-11.84c-.79-5.4-3.09-5.95 1.07-10.11z"/></svg>