<svg id="Layer_1" data-name="Layer 1" xmlns="http://www.w3.org/2000/svg" viewBox="0 0 594.55 635.14"><defs><style>.cls-1,.cls-2{fill:none}.cls-2{clip-rule:evenodd}.cls-3{fill:#f5cf54}.cls-4{clip-path:url(#clip-path)}.cls-5{clip-path:url(#clip-path-2)}.cls-6{clip-path:url(#clip-path-3)}</style><clipPath id="clip-path"><path class="cls-1" d="M295.25-873.64c3.9 0 7.75-.84 11.61-1s7.67-1.28 11.52-1.61 7.65-.93 11.49-1.43 7.74-.41 11.55-1.08 7.59-1.46 11.37-2.3 8.07.3 11.81-.7 7.26-3 11-4.13 7.33-2.6 11-3.92 7.85-1.33 11.43-2.82 5.81-6.06 9.32-7.7 7.44-2.35 10.88-4.14 8-1.6 11.36-3.54 4.75-7.12 8-9.21 7-3.36 10.19-5.58 5.93-4.94 9-7.31 5.92-4.91 8.89-7.41 6.07-4.74 8.94-7.36 7-3.84 9.79-6.59 4.55-6.38 7.18-9.25 6.52-4.62 9-7.59 3.63-7.06 6-10.14 5-5.92 7.26-9.1 4.76-6.16 6.85-9.43 3.1-7.18 5-10.55 6.18-5.48 8-8.93 2.7-7.39 4.35-10.91 4.36-6.63 5.85-10.23 1.09-8 2.42-11.61 3-7.19 4.17-10.9 2.09-7.49 3.09-11.26 3.71-7.14 4.55-10.94-.46-8 .21-11.89 2.92-7.44 3.42-11.3 1.35-7.74 1.68-11.62-1.59-7.92-1.42-11.81 1.29-7.75 1.29-11.65-.79-7.8-1-11.66.79-7.89.45-11.75-1.27-7.75-1.77-11.59-1.92-7.61-2.59-11.42-1.31-7.69-2.14-11.46-3.27-7.19-4.27-10.93-3.06-7.13-4.22-10.83-1-7.8-2.33-11.44-2.69-7.26-4.18-10.84-4.45-6.46-6.09-10 .06-8.68-1.73-12.12-3.65-6.94-5.6-10.3-4.22-6.6-6.31-9.87-7.19-4.51-9.42-7.69-3.83-6.73-6.19-9.81-2.76-7.74-5.26-10.71-6.82-4.35-9.44-7.21-5.14-5.77-7.89-8.51-4.85-6.14-7.71-8.76-6.56-4.26-9.54-6.76-4.88-6.3-8-8.67-5.59-5.6-8.77-7.83-7.63-2.61-10.91-4.7-6.81-3.69-10.17-5.64-6-5.16-9.46-7-6.66-4.14-10.18-5.79-7.63-2-11.22-3.49-6.49-4.84-10.15-6.17-8.53 1-12.24-.21-6.46-5.57-10.22-6.57-8.07.25-11.88-.59-7.28-3.27-11.11-3.94-7.9.25-11.77-.25-7.83.78-11.72.45-7.6-1.52-11.5-1.69-7.7 1-11.6 1-7.84-3.6-11.71-3.43-7.7 1.92-11.55 2.25-8-1.44-11.86-.94-7.56 2.46-11.37 3.13-7.69 1.37-11.47 2.21-7.15 3.49-10.89 4.49-7.25 2.72-10.94 3.88-8.66-1.28-12.3 0-5.78 6.62-9.36 8.1-8.25.49-11.77 2.13-6.53 4.37-10 6.16-7.12 3.19-10.47 5.13-7.32 3-10.59 5.09-6.05 5-9.23 7.23-5.05 6.21-8.13 8.58-6.55 4.17-9.52 6.67-6.78 4-9.64 6.67-6.54 4.48-9.28 7.23-3.18 7.72-5.81 10.58-4.87 6-7.36 8.95-4.79 6-7.16 9.09-4.89 6-7.13 9.13-4.09 6.52-6.18 9.8-6.45 5.2-8.45 8.56-3 7.21-4.82 10.64-4.23 6.6-5.87 10.12-3.73 6.9-5.22 10.49-.08 8.3-1.41 12-4.2 6.74-5.37 10.45 0 8-1 11.8-1.79 7.45-2.63 11.25-2.14 7.4-2.81 11.23-2.37 7.44-2.87 11.3-1.32 7.64-1.65 11.53 0 7.75-.13 11.65-.46 7.72-.46 11.62 1.61 7.7 1.78 11.56-3.79 8-3.46 11.9 1.11 7.8 1.61 11.63 5.13 7.08 5.8 10.89.88 7.67 1.72 11.45-1.76 8.44-.76 12.18 5.44 6.53 6.6 10.22 2 7.47 3.33 11.11 3 7.1 4.52 10.68 2.39 7.39 4 10.9 4 6.64 5.78 10.08.43 8.65 2.38 12 4.23 6.63 6.32 9.9 6.42 5.09 8.65 8.26 5.65 5.41 8 8.49 3.52 7.07 6 10 3.25 7.53 5.87 10.39 7.31 3.8 10.05 6.54 3.58 7.53 6.45 10.15 5.85 5.25 8.82 7.74 6.29 4.7 9.37 7.07 8 2.18 11.22 4.41 4.67 7 7.94 9.09 7.83 2.12 11.19 4.07 6.66 4 10.1 5.76 6.1 5.23 9.63 6.87 7.93 1.29 11.53 2.78 7 3.34 10.67 4.67 7.25 2.77 11 3.94 7.07 3.6 10.83 4.61 8.05-.2 11.85.64 7.25 3.36 11.09 4 8-.78 11.83-.28 7.63 1.29 11.51 1.62 7.67 1.38 11.57 1.55 7.79.05 11.7.05z"/></clipPath><clipPath id="clip-path-2"><path class="cls-2" d="M295.25-873.64c3.9 0 7.75-.84 11.61-1s7.67-1.28 11.52-1.61 7.65-.93 11.49-1.43 7.74-.41 11.55-1.08 7.59-1.46 11.37-2.3 8.07.3 11.81-.7 7.26-3 11-4.13 7.33-2.6 11-3.92 7.85-1.33 11.43-2.82 5.81-6.06 9.32-7.7 7.44-2.35 10.88-4.14 8-1.6 11.36-3.54 4.75-7.12 8-9.21 7-3.36 10.19-5.58 5.93-4.94 9-7.31 5.92-4.91 8.89-7.41 6.07-4.74 8.94-7.36 7-3.84 9.79-6.59 4.55-6.38 7.18-9.25 6.52-4.62 9-7.59 3.63-7.06 6-10.14 5-5.92 7.26-9.1 4.76-6.16 6.85-9.43 3.1-7.18 5-10.55 6.18-5.48 8-8.93 2.7-7.39 4.35-10.91 4.36-6.63 5.85-10.23 1.09-8 2.42-11.61 3-7.19 4.17-10.9 2.09-7.49 3.09-11.26 3.71-7.14 4.55-10.94-.46-8 .21-11.89 2.92-7.44 3.42-11.3 1.35-7.74 1.68-11.62-1.59-7.92-1.42-11.81 1.29-7.75 1.29-11.65-.79-7.8-1-11.66.79-7.89.45-11.75-1.27-7.75-1.77-11.59-1.92-7.61-2.59-11.42-1.31-7.69-2.14-11.46-3.27-7.19-4.27-10.93-3.06-7.13-4.22-10.83-1-7.8-2.33-11.44-2.69-7.26-4.18-10.84-4.45-6.46-6.09-10 .06-8.68-1.73-12.12-3.65-6.94-5.6-10.3-4.22-6.6-6.31-9.87-7.19-4.51-9.42-7.69-3.83-6.73-6.19-9.81-2.76-7.74-5.26-10.71-6.82-4.35-9.44-7.21-5.14-5.77-7.89-8.51-4.85-6.14-7.71-8.76-6.56-4.26-9.54-6.76-4.88-6.3-8-8.67-5.59-5.6-8.77-7.83-7.63-2.61-10.91-4.7-6.81-3.69-10.17-5.64-6-5.16-9.46-7-6.66-4.14-10.18-5.79-7.63-2-11.22-3.49-6.49-4.84-10.15-6.17-8.53 1-12.24-.21-6.46-5.57-10.22-6.57-8.07.25-11.88-.59-7.28-3.27-11.11-3.94-7.9.25-11.77-.25-7.83.78-11.72.45-7.6-1.52-11.5-1.69-7.7 1-11.6 1-7.84-3.6-11.71-3.43-7.7 1.92-11.55 2.25-8-1.44-11.86-.94-7.56 2.46-11.37 3.13-7.69 1.37-11.47 2.21-7.15 3.49-10.89 4.49-7.25 2.72-10.94 3.88-8.66-1.28-12.3 0-5.78 6.62-9.36 8.1-8.25.49-11.77 2.13-6.53 4.37-10 6.16-7.12 3.19-10.47 5.13-7.32 3-10.59 5.09-6.05 5-9.23 7.23-5.05 6.21-8.13 8.58-6.55 4.17-9.52 6.67-6.78 4-9.64 6.67-6.54 4.48-9.28 7.23-3.18 7.72-5.81 10.58-4.87 6-7.36 8.95-4.79 6-7.16 9.09-4.89 6-7.13 9.13-4.09 6.52-6.18 9.8-6.45 5.2-8.45 8.56-3 7.21-4.82 10.64-4.23 6.6-5.87 10.12-3.73 6.9-5.22 10.49-.08 8.3-1.41 12-4.2 6.74-5.37 10.45 0 8-1 11.8-1.79 7.45-2.63 11.25-2.14 7.4-2.81 11.23-2.37 7.44-2.87 11.3-1.32 7.64-1.65 11.53 0 7.75-.13 11.65-.46 7.72-.46 11.62 1.61 7.7 1.78 11.56-3.79 8-3.46 11.9 1.11 7.8 1.61 11.63 5.13 7.08 5.8 10.89.88 7.67 1.72 11.45-1.76 8.44-.76 12.18 5.44 6.53 6.6 10.22 2 7.47 3.33 11.11 3 7.1 4.52 10.68 2.39 7.39 4 10.9 4 6.64 5.78 10.08.43 8.65 2.38 12 4.23 6.63 6.32 9.9 6.42 5.09 8.65 8.26 5.65 5.41 8 8.49 3.52 7.07 6 10 3.25 7.53 5.87 10.39 7.31 3.8 10.05 6.54 3.58 7.53 6.45 10.15 5.85 5.25 8.82 7.74 6.29 4.7 9.37 7.07 8 2.18 11.22 4.41 4.67 7 7.94 9.09 7.83 2.12 11.19 4.07 6.66 4 10.1 5.76 6.1 5.23 9.63 6.87 7.93 1.29 11.53 2.78 7 3.34 10.67 4.67 7.25 2.77 11 3.94 7.07 3.6 10.83 4.61 8.05-.2 11.85.64 7.25 3.36 11.09 4 8-.78 11.83-.28 7.63 1.29 11.51 1.62 7.67 1.38 11.57 1.55 7.79.05 11.7.05z"/></clipPath><clipPath id="clip-path-3"><path class="cls-1" d="M295.25-873.64c3.9 0 7.75-.84 11.61-1s7.67-1.28 11.52-1.61 7.65-.93 11.49-1.43 7.74-.41 11.55-1.08 7.59-1.46 11.37-2.3 8.07.3 11.81-.7 7.26-3 11-4.13 7.33-2.6 11-3.92 7.85-1.33 11.43-2.82 5.81-6.06 9.32-7.7 18.89-5.74 22.24-7.68 4.75-7.12 8-9.21 7-3.36 10.19-5.58 5.93-4.94 9-7.31 5.92-4.91 8.89-7.41 6.07-4.74 8.94-7.36 7-3.84 9.79-6.59 13.7-13.86 16.2-16.84 3.63-7.06 6-10.14 12-15.25 14.11-18.53 3.1-7.18 5-10.55 6.18-5.48 8-8.93 2.7-7.39 4.35-10.91 4.36-6.63 5.85-10.23 1.09-8 2.42-11.61 3-7.19 4.17-10.9 2.09-7.49 3.09-11.26 3.71-7.14 4.55-10.94-.46-8 .21-11.89 2.92-7.44 3.42-11.3 1.35-7.74 1.68-11.62-1.59-7.92-1.42-11.81 1.29-7.75 1.29-11.65-.79-7.8-1-11.66.79-7.89.45-11.75-1.27-7.75-1.77-11.59-1.92-7.61-2.59-11.42-1.31-7.69-2.14-11.46-3.27-7.19-4.27-10.93-3.06-7.13-4.22-10.83-1-7.8-2.33-11.44-2.69-7.26-4.18-10.84-6-18.66-7.82-22.09-3.65-6.94-5.6-10.3-13.5-14.39-15.73-17.56-3.83-6.73-6.19-9.81-2.76-7.74-5.26-10.71-6.82-4.35-9.44-7.21-5.14-5.77-7.89-8.51-4.85-6.14-7.71-8.76-6.56-4.26-9.54-6.76-4.88-6.3-8-8.67-5.59-5.6-8.77-7.83-7.63-2.61-10.91-4.7-6.81-3.69-10.17-5.64-6-5.16-9.46-7-6.66-4.14-10.18-5.79-7.63-2-11.22-3.49-6.49-4.84-10.15-6.17-8.53 1-12.24-.21-6.46-5.57-10.22-6.57-8.07.25-11.88-.59-7.28-3.27-11.11-3.94-7.9.25-11.77-.25-7.83.78-11.72.45-7.6-1.52-11.5-1.69-7.7 1-11.6 1-7.84-3.6-11.71-3.43-7.7 1.92-11.55 2.25-8-1.44-11.86-.94-7.56 2.46-11.37 3.13-7.69 1.37-11.47 2.21-7.15 3.49-10.89 4.49-7.25 2.72-10.94 3.88-18.08 6.66-21.66 8.14-8.25.49-11.77 2.13-6.53 4.37-10 6.16-7.12 3.19-10.47 5.13-7.32 3-10.59 5.09-6.05 5-9.23 7.23-5.05 6.21-8.13 8.58-6.55 4.17-9.52 6.67-6.78 4-9.64 6.67-6.54 4.48-9.28 7.23-3.18 7.72-5.81 10.58-4.87 6-7.36 8.95-4.79 6-7.16 9.09-4.89 6-7.13 9.13-4.09 6.52-6.18 9.8S65-1278 63-1274.64s-3 7.21-4.82 10.64-4.23 6.6-5.87 10.12-3.73 6.9-5.22 10.49-.08 8.3-1.41 12-4.2 6.74-5.37 10.45 0 8-1 11.8-1.79 7.45-2.63 11.25-2.14 7.4-2.81 11.23-2.37 7.44-2.87 11.3-1.32 7.64-1.65 11.53 0 7.75-.13 11.65-.46 7.72-.46 11.62 1.61 7.7 1.78 11.56-3.79 8-3.46 11.9 1.11 7.8 1.61 11.63 5.13 7.08 5.8 10.89.88 7.67 1.72 11.45-1.76 8.44-.76 12.18 5.44 6.53 6.6 10.22 2 7.47 3.33 11.11 3 7.1 4.52 10.68 2.39 7.39 4 10.9 4 6.64 5.78 10.08.43 8.65 2.38 12 4.23 6.63 6.32 9.9 6.42 5.09 8.65 8.26 5.65 5.41 8 8.49 3.52 7.07 6 10 3.25 7.53 5.87 10.39 7.31 3.8 10.05 6.54 3.58 7.53 6.45 10.15 5.85 5.25 8.82 7.74 17.42 9.25 20.6 11.48 4.67 7 7.94 9.09 27.4 15.06 30.92 16.7 7.93 1.29 11.53 2.78 17.92 7.44 21.63 8.61 7.07 3.6 10.83 4.61 8.05-.2 11.85.64 7.25 3.36 11.09 4 8-.78 11.83-.28 7.63 1.29 11.51 1.62 7.67 1.38 11.57 1.55 7.82.05 11.73.05z"/></clipPath></defs><title>Honey</title><path class="cls-3" d="M499.3 103.79c-5.31-1.49-5.26-1.64-10.57-3.13s-6 1-11.31-.5-5.38-1.24-10.68-2.73-4.2-5.41-9.51-6.91-5.76.11-11.07-1.38-5-2.65-10.29-4.14-5.53-.71-10.83-2.2-5.34-1.38-10.65-2.87-5.34-1.38-10.65-2.87-5.57-.57-10.87-2.06-6.2 1.68-11.51.18-4.09-5.81-9.4-7.3-4.78-3.37-10.09-4.86-6.49 2.73-11.8 1.24-5.67-.19-11-1.68-4.66-3.79-10-5.28-6.34 2.18-11.65.69-5.09-2.26-10.4-3.75-5.02-2.38-10.32-3.87-5.07-2.35-10.37-3.84-6.08 1.26-11.39-.23-4.75-3.48-10.06-5-4.09-5.82-9.4-7.31-6.32 2.09-11.63.6-4.69-1.71-10-3.2-5.84 1.51-11.19 2.87-1.65 2-5.6 5.88-7.24-1.53-11.19 2.32-5.2 1.62-9.14 5.47 2 9.91-2 13.76-5.46 2.3-9.41 6.14-5.73 2-9.68 5.87-5.32 2.44-9.27 6.29-2.37 5.4-6.37 9.25-4 3.76-8 7.58-3.66 4.14-7.61 8-5.25 2.52-9.19 6.37-5.53 2.22-9.48 6.07.08 8-3.86 11.83-7.68 0-11.63 3.87-2.34 5.49-6.29 9.34c-2 1.92-9.7 7.89-16.3 14.94s-10.21 17.09-12.19 19c-3.95 3.85-6.18 1.56-10.13 5.41s-4.21 3.58-8.15 7.43-5.6 2.16-9.55 6-1 6.92-4.9 10.77-4.52 3.27-8.46 7.12-7.26.45-11.26 4.3-.33 7.56-4.28 11.41-6.63 1.57-8.13 6.88 1.85 4.79 3.21 10.14 3 4.93 4.36 10.27-2.42 6.31-1.06 11.65.35 5.6 1.71 10.94.7 5.51 2.06 10.85c.68 2.67 2.76 12.18 5.38 21.47s11 17 11.66 19.7c1.36 5.34-5.81 7.17-4.44 12.51s7.33 15.2 8.69 20.54.72 5.51 2.08 10.85 1.29 5.36 2.66 10.7-.63 5.85.73 11.19 7.32 15.2 8.68 20.54-.43 5.8.93 11.14 4.48 4.55 5.84 9.89-1.64 6.11-.28 11.45 3.48 4.8 4.85 10.15 3 4.93 4.33 10.28-2.46 6.32-1.1 11.66S74.6 497.6 76 502.95s4.79 4.47 6.15 9.82-3.11 7.58.75 11.53 5.79 1 11.09 2.49 6.06-1.18 11.36.31 4.44 4.59 9.74 6.08 5.51.77 10.82 2.27 4 6 9.34 7.51 6.4-2.41 11.71-.92 6.51-2.8 11.82-1.31 4.52 4.28 9.83 5.78 6.22-1.74 11.52-.25 3.7 7.22 9 8.71 5.6.46 10.91 2 4.53 4.25 9.84 5.75 6.33-2.13 11.63-.64 5.12 2.16 10.43 3.66 5.1 2.21 10.41 3.71 4.91 2.92 10.21 4.41 6.38-2.32 11.69-.83 4.38 4.79 9.69 6.29 6.36-2.25 11.67-.75 5.94-.75 11.24.75 4.56 4.16 9.86 5.66 4.49 4.39 9.8 5.88 5.4 1.16 10.71 2.66 5.83-.37 11.14 1.13 4.5 4.37 9.81 5.86 4.86 3.09 10.17 4.58 5.91-.61 11.26-2 2.59-4.2 6.53-8 5.13-2.63 9.08-6.48 5.2-2.57 9.14-6.42 2.52-5.31 6.46-9.16 3.83-4 7.78-7.82S416 564.87 420 561s2.93-4.89 6.88-8.74 12.6-10.77 16.55-14.62 7-16.46 11-20.31 9.1 1.43 13-2.42 4.16-3.63 8.1-7.48-2.09-10 1.86-13.88 5.71-2 9.66-5.89 6.41-1.32 10.36-5.17 2.44-5.4 6.38-9.25 1.49-6.36 5.44-10.21 14.08-9.25 18-13.1 3.79-4 7.73-7.86 12-11.34 16-15.19 13.58-9.77 17.53-13.62 5.54-2.22 9.48-6.08-.23-6.39 1.26-11.7 2.92-4.41 1.56-9.75-3.75-4.73-5.11-10.07.58-5.84-.78-11.18 2-6.2.64-11.54-1-5.43-2.4-10.77c-.68-2.67-1.48-9.75-3.55-16.34s-8.08-12-8.76-14.66c-1.36-5.34-2.51-5-3.87-10.39s.36-5.78-1-11.12-.62-5.53-2-10.87-.06-5.67-1.42-11c-.68-2.67-5.4-8.52-7.59-15.07s-3-13.51-3.7-16.18c-1.36-5.34-1.08-16.79-2.44-22.13s-.26-5.62-1.63-11-5.22-4.36-6.58-9.7-2.13-5.15-3.5-10.49-3.1-4.88-4.43-10.22 2.27-6.27.91-11.61-4.4-4.57-5.77-9.91-2.71-5-4.07-10.34 4.43-6.82 3.07-12.16-7.93-4.59-8.12-10.11c-.2-6.13-4.09-13.58-9.39-15.08z"/></svg>