<svg id="Layer_1" data-name="Layer 1" xmlns="http://www.w3.org/2000/svg" viewBox="0 0 562.93 635.14"><defs><style>.cls-1,.cls-2{fill:none}.cls-2{clip-rule:evenodd}.cls-3{fill:#36bfbf}.cls-4{clip-path:url(#clip-path)}.cls-5{clip-path:url(#clip-path-2)}.cls-6{clip-path:url(#clip-path-3)}</style><clipPath id="clip-path"><path class="cls-1" d="M282.74-136.65c3.9 0 7.75-.84 11.61-1s7.67-1.28 11.52-1.61 7.65-.93 11.49-1.43 7.74-.41 11.55-1.08 7.59-1.46 11.37-2.3 8.07.3 11.81-.7 7.26-3 11-4.13 7.33-2.6 11-3.92 7.85-1.33 11.43-2.82 5.81-6.06 9.32-7.7 7.44-2.35 10.88-4.14 8-1.6 11.36-3.54 4.75-7.12 8-9.21 7-3.36 10.19-5.58 5.93-4.94 9-7.31 5.92-4.91 8.89-7.41 6.07-4.74 8.94-7.36 7-3.84 9.79-6.59 4.55-6.38 7.18-9.25 6.52-4.62 9-7.59 3.63-7.06 6-10.14 5-5.92 7.26-9.1 4.76-6.16 6.85-9.43 3.1-7.18 5-10.55 6.18-5.48 8-8.93 2.7-7.39 4.35-10.91 4.36-6.63 5.85-10.23 1.09-8 2.42-11.61 3-7.19 4.17-10.9 2.09-7.49 3.09-11.26 3.71-7.14 4.55-10.94-.46-8 .21-11.89 2.92-7.44 3.42-11.3 1.35-7.74 1.68-11.62-1.59-7.92-1.42-11.81 1.29-7.75 1.29-11.65-.79-7.8-1-11.66.79-7.89.45-11.75-1.27-7.75-1.77-11.59-1.92-7.61-2.59-11.42-1.31-7.69-2.14-11.46-3.27-7.19-4.27-10.93-3.06-7.13-4.22-10.83-1-7.8-2.33-11.44-2.69-7.26-4.18-10.84-4.45-6.46-6.09-10 .06-8.68-1.73-12.12-3.65-6.94-5.6-10.3-4.22-6.6-6.31-9.87-7.19-4.51-9.42-7.69-3.83-6.73-6.19-9.81-2.71-7.7-5.21-10.7-6.82-4.35-9.44-7.21-5.14-5.77-7.89-8.51-4.85-6.14-7.71-8.76-6.56-4.26-9.54-6.76-4.88-6.3-8-8.67-5.59-5.6-8.77-7.83-7.63-2.61-10.91-4.7-6.81-3.69-10.17-5.64-6-5.16-9.46-7-6.66-4.14-10.18-5.79-7.63-2-11.22-3.49-6.49-4.84-10.15-6.17-8.53 1-12.24-.21-6.46-5.57-10.22-6.57-8.07.25-11.88-.59-7.28-3.27-11.11-3.94-7.9.25-11.77-.25-7.83.78-11.72.45-7.6-1.52-11.5-1.69-7.7 1-11.6 1-7.84-3.6-11.71-3.43-7.7 1.92-11.55 2.25-8-1.44-11.86-.94-7.56 2.46-11.37 3.13-7.69 1.37-11.47 2.21-7.15 3.49-10.89 4.49-7.25 2.72-10.94 3.88-8.66-1.28-12.3 0-5.78 6.62-9.36 8.1-8.25.49-11.77 2.13-6.53 4.37-10 6.16-7.12 3.19-10.47 5.13-7.32 3-10.59 5.09-6.05 5-9.23 7.23-5.05 6.21-8.13 8.58-6.55 4.17-9.52 6.67-6.78 4-9.64 6.67-6.54 4.48-9.28 7.23-3.18 7.72-5.81 10.58-4.87 6-7.36 8.95-4.79 6-7.16 9.09-4.89 6-7.13 9.13-4.09 6.52-6.18 9.8-6.57 5.07-8.52 8.44-3.07 7.21-4.86 10.65-4.23 6.6-5.87 10.12-3.73 6.9-5.22 10.49-.08 8.3-1.41 12-4.11 6.81-5.3 10.5 0 8-1 11.8-1.79 7.45-2.63 11.25-2.14 7.4-2.81 11.23-2.37 7.44-2.87 11.3-1.32 7.64-1.65 11.53 0 7.75-.13 11.65-.46 7.72-.46 11.62S17.87-395.9 18-392s-3.79 8-3.46 11.9 1.11 7.8 1.61 11.63 5.13 7.08 5.8 10.89.88 7.67 1.72 11.45-1.76 8.44-.76 12.18 5.44 6.53 6.6 10.22 2 7.47 3.33 11.11 3 7.1 4.52 10.68 2.39 7.39 4 10.9 4 6.64 5.78 10.08.43 8.65 2.38 12 4.23 6.63 6.32 9.9 6.42 5.09 8.65 8.26 5.65 5.41 8 8.49 3.52 7.07 6 10 3.25 7.53 5.87 10.39 7.31 3.8 10.05 6.54 3.58 7.53 6.45 10.15 5.85 5.25 8.82 7.74 6.29 4.7 9.37 7.07 8 2.18 11.22 4.41 4.67 7 7.94 9.09 7.83 2.12 11.19 4.07 6.66 4 10.1 5.76 6.1 5.23 9.63 6.87 7.93 1.29 11.53 2.78 7 3.34 10.67 4.67 7.25 2.77 11 3.94 7.07 3.6 10.83 4.61 8.05-.2 11.85.64 7.25 3.36 11.09 4 8-.78 11.83-.28 7.63 1.29 11.51 1.62 7.67 1.38 11.57 1.55 7.83.04 11.73.04z"/></clipPath><clipPath id="clip-path-2"><path class="cls-2" d="M282.74-136.65c3.9 0 7.75-.84 11.61-1s7.67-1.28 11.52-1.61 7.65-.93 11.49-1.43 7.74-.41 11.55-1.08 7.59-1.46 11.37-2.3 8.07.3 11.81-.7 7.26-3 11-4.13 7.33-2.6 11-3.92 7.85-1.33 11.43-2.82 5.81-6.06 9.32-7.7 7.44-2.35 10.88-4.14 8-1.6 11.36-3.54 4.75-7.12 8-9.21 7-3.36 10.19-5.58 5.93-4.94 9-7.31 5.92-4.91 8.89-7.41 6.07-4.74 8.94-7.36 7-3.84 9.79-6.59 4.55-6.38 7.18-9.25 6.52-4.62 9-7.59 3.63-7.06 6-10.14 5-5.92 7.26-9.1 4.76-6.16 6.85-9.43 3.1-7.18 5-10.55 6.18-5.48 8-8.93 2.7-7.39 4.35-10.91 4.36-6.63 5.85-10.23 1.09-8 2.42-11.61 3-7.19 4.17-10.9 2.09-7.49 3.09-11.26 3.71-7.14 4.55-10.94-.46-8 .21-11.89 2.92-7.44 3.42-11.3 1.35-7.74 1.68-11.62-1.59-7.92-1.42-11.81 1.29-7.75 1.29-11.65-.79-7.8-1-11.66.79-7.89.45-11.75-1.27-7.75-1.77-11.59-1.92-7.61-2.59-11.42-1.31-7.69-2.14-11.46-3.27-7.19-4.27-10.93-3.06-7.13-4.22-10.83-1-7.8-2.33-11.44-2.69-7.26-4.18-10.84-4.45-6.46-6.09-10 .06-8.68-1.73-12.12-3.65-6.94-5.6-10.3-4.22-6.6-6.31-9.87-7.19-4.51-9.42-7.69-3.83-6.73-6.19-9.81-2.71-7.7-5.21-10.7-6.82-4.35-9.44-7.21-5.14-5.77-7.89-8.51-4.85-6.14-7.71-8.76-6.56-4.26-9.54-6.76-4.88-6.3-8-8.67-5.59-5.6-8.77-7.83-7.63-2.61-10.91-4.7-6.81-3.69-10.17-5.64-6-5.16-9.46-7-6.66-4.14-10.18-5.79-7.63-2-11.22-3.49-6.49-4.84-10.15-6.17-8.53 1-12.24-.21-6.46-5.57-10.22-6.57-8.07.25-11.88-.59-7.28-3.27-11.11-3.94-7.9.25-11.77-.25-7.83.78-11.72.45-7.6-1.52-11.5-1.69-7.7 1-11.6 1-7.84-3.6-11.71-3.43-7.7 1.92-11.55 2.25-8-1.44-11.86-.94-7.56 2.46-11.37 3.13-7.69 1.37-11.47 2.21-7.15 3.49-10.89 4.49-7.25 2.72-10.94 3.88-8.66-1.28-12.3 0-5.78 6.62-9.36 8.1-8.25.49-11.77 2.13-6.53 4.37-10 6.16-7.12 3.19-10.47 5.13-7.32 3-10.59 5.09-6.05 5-9.23 7.23-5.05 6.21-8.13 8.58-6.55 4.17-9.52 6.67-6.78 4-9.64 6.67-6.54 4.48-9.28 7.23-3.18 7.72-5.81 10.58-4.87 6-7.36 8.95-4.79 6-7.16 9.09-4.89 6-7.13 9.13-4.09 6.52-6.18 9.8-6.57 5.07-8.52 8.44-3.07 7.21-4.86 10.65-4.23 6.6-5.87 10.12-3.73 6.9-5.22 10.49-.08 8.3-1.41 12-4.11 6.81-5.3 10.5 0 8-1 11.8-1.79 7.45-2.63 11.25-2.14 7.4-2.81 11.23-2.37 7.44-2.87 11.3-1.32 7.64-1.65 11.53 0 7.75-.13 11.65-.46 7.72-.46 11.62S17.87-395.9 18-392s-3.79 8-3.46 11.9 1.11 7.8 1.61 11.63 5.13 7.08 5.8 10.89.88 7.67 1.72 11.45-1.76 8.44-.76 12.18 5.44 6.53 6.6 10.22 2 7.47 3.33 11.11 3 7.1 4.52 10.68 2.39 7.39 4 10.9 4 6.64 5.78 10.08.43 8.65 2.38 12 4.23 6.63 6.32 9.9 6.42 5.09 8.65 8.26 5.65 5.41 8 8.49 3.52 7.07 6 10 3.25 7.53 5.87 10.39 7.31 3.8 10.05 6.54 3.58 7.53 6.45 10.15 5.85 5.25 8.82 7.74 6.29 4.7 9.37 7.07 8 2.18 11.22 4.41 4.67 7 7.94 9.09 7.83 2.12 11.19 4.07 6.66 4 10.1 5.76 6.1 5.23 9.63 6.87 7.93 1.29 11.53 2.78 7 3.34 10.67 4.67 7.25 2.77 11 3.94 7.07 3.6 10.83 4.61 8.05-.2 11.85.64 7.25 3.36 11.09 4 8-.78 11.83-.28 7.63 1.29 11.51 1.62 7.67 1.38 11.57 1.55 7.83.04 11.73.04z"/></clipPath><clipPath id="clip-path-3"><path class="cls-1" d="M282.74-136.65c3.9 0 7.75-.84 11.61-1s7.67-1.28 11.52-1.61 7.65-.93 11.49-1.43 7.74-.41 11.55-1.08 7.59-1.46 11.37-2.3 8.07.3 11.81-.7 7.26-3 11-4.13 7.33-2.6 11-3.92 7.85-1.33 11.43-2.82 5.81-6.06 9.32-7.7 18.82-5.75 22.16-7.66 4.75-7.12 8-9.21 7-3.36 10.19-5.58 5.93-4.94 9-7.31 5.92-4.91 8.89-7.41 6.07-4.74 8.94-7.36 7-3.84 9.79-6.59 13.7-13.86 16.2-16.84 3.63-7.06 6-10.14 12-15.25 14.11-18.53 3.1-7.18 5-10.55 6.18-5.48 8-8.93 2.7-7.39 4.35-10.91 4.36-6.63 5.85-10.23 1.09-8 2.42-11.61 3-7.19 4.17-10.9 2.09-7.49 3.09-11.26 3.71-7.14 4.55-10.94-.46-8 .21-11.89 2.92-7.44 3.42-11.3 1.35-7.74 1.68-11.62-1.59-7.92-1.42-11.81 1.29-7.75 1.29-11.65-.79-7.8-1-11.66.79-7.89.45-11.75-1.27-7.75-1.77-11.59-1.92-7.61-2.59-11.42-1.31-7.69-2.14-11.46-3.27-7.19-4.27-10.93-3.06-7.13-4.22-10.83-1-7.8-2.33-11.44-2.69-7.26-4.18-10.84-6-18.66-7.82-22.09-3.65-6.94-5.6-10.3-13.5-14.39-15.73-17.56-3.83-6.73-6.19-9.81-2.65-7.75-5.15-10.75-6.82-4.35-9.44-7.21-5.14-5.77-7.89-8.51-4.85-6.14-7.71-8.76-6.56-4.26-9.54-6.76-4.88-6.3-8-8.67-5.59-5.6-8.77-7.83-7.63-2.61-10.91-4.7-6.81-3.69-10.17-5.64-6-5.16-9.46-7-6.66-4.14-10.18-5.79-7.63-2-11.22-3.49-6.49-4.84-10.15-6.17-8.53 1-12.24-.21-6.46-5.57-10.22-6.57-8.07.25-11.88-.59-7.28-3.27-11.11-3.94-7.9.25-11.77-.25-7.83.78-11.72.45-7.6-1.52-11.5-1.69-7.7 1-11.6 1-7.84-3.6-11.71-3.43-7.7 1.92-11.55 2.25-8-1.44-11.86-.94-7.56 2.46-11.37 3.13-7.69 1.37-11.47 2.21-7.15 3.49-10.89 4.49-7.25 2.72-10.94 3.88-18.08 6.66-21.66 8.14-8.25.49-11.77 2.13-6.53 4.37-10 6.16-7.12 3.19-10.47 5.13-7.32 3-10.59 5.09-6.05 5-9.23 7.23-5.05 6.21-8.13 8.58-6.55 4.17-9.52 6.67-6.78 4-9.64 6.67-6.54 4.48-9.28 7.23-3.18 7.72-5.81 10.58-4.87 6-7.36 8.95-4.79 6-7.16 9.09-4.89 6-7.13 9.13-4.09 6.52-6.18 9.8-6.57 5.07-8.52 8.44-3.07 7.21-4.86 10.65-4.23 6.6-5.87 10.12-3.73 6.9-5.22 10.49-.08 8.3-1.41 12-4.11 6.77-5.3 10.46 0 8-1 11.8-1.79 7.45-2.63 11.25-2.14 7.4-2.81 11.23-2.37 7.44-2.87 11.3-1.32 7.64-1.65 11.53 0 7.75-.13 11.65-.46 7.72-.46 11.62S17.87-395.9 18-392s-3.79 8-3.46 11.9 1.11 7.8 1.61 11.63 5.13 7.08 5.8 10.89.88 7.67 1.72 11.45-1.76 8.44-.76 12.18 5.44 6.53 6.6 10.22 2 7.47 3.33 11.11 3 7.1 4.52 10.68 2.39 7.39 4 10.9 4 6.64 5.78 10.08.43 8.65 2.38 12 4.23 6.63 6.32 9.9 6.42 5.09 8.65 8.26 5.65 5.41 8 8.49 3.52 7.07 6 10 3.25 7.53 5.87 10.39 7.31 3.8 10.05 6.54 3.58 7.53 6.45 10.15 5.85 5.25 8.82 7.74 17.42 9.25 20.6 11.48 4.67 7 7.94 9.09 27.4 15.06 30.92 16.7 7.93 1.29 11.53 2.78 17.92 7.44 21.63 8.61 7.07 3.6 10.83 4.61 8.05-.2 11.85.64 7.25 3.36 11.09 4 8-.78 11.83-.28 7.63 1.29 11.51 1.62 7.67 1.38 11.57 1.55 7.86.04 11.76.04z"/></clipPath></defs><title>Mint</title><path class="cls-3" d="M512.43 217c-2.81 2.47-5.07 3.16-8.06 5.53s-4.86 6.1-8 8.32-6.32 4.21-9.5 6.3-6.71 3.55-10 5.52-6.2 4.4-9.52 6.26-7.76 1.53-11.12 3.28-6.28 4.27-9.69 5.93-7.53 1.67-11 3.24-15.7 11.22-19.2 12.62-7.54 1.6-11.06 2.94-6.68 3.86-10.22 5.14-8.06 0-11.61 1.18-6.55 4.39-10.12 5.54-7.32 2.13-10.9 3.22-7.44 1.74-11 2.77-7.61 1.13-11.19 2.11-7.86.1-11.44 1c-3.75 1-7.35 2.08-10.92 3-3.79.93-7.32 2.32-10.88 3.15-3.83.89-7.25 2.87-10.79 3.65-3.9.85-7.5 2.12-11 2.83-4 .82-8.06-.15-11.45.49-4.27.81-7.67 3.32-10.81 3.87-7.14 1.25-6-1.59-11.57-.77l.12.77c-3.73.52-7.41 1.73-11 2.53s-6.8 3.62-10.36 4.71-7 2.56-10.42 3.94-7.56 1.36-10.91 3-6.15 4.36-9.36 6.27-5.77 4.71-8.82 6.87-6.9 3.22-9.76 5.62-5.54 5-8.22 7.64-4.74 5.76-7.2 8.58-6.17 4.64-8.4 7.65-1.89 7.71-3.87 10.89-7.16 4.52-8.89 7.85 0 8.25-1.46 11.71-6.41 5.59-7.58 9.16-2.19 7.31-3.08 11-.62 7.61-1.21 11.33-1.15 7.46-1.45 11.22 2.89 7.53 2.89 11.3c0 3.93-1.72 7.79-1.41 11.63s.67 7.76 1.3 11.58-.15 8.06.8 11.81 2.11 7.64 3.36 11.3 4.19 6.79 5.75 10.34 2.42 7.52 4.27 10.93 4.75 6.26 6.88 9.51 3.1 7.42 5.49 10.48 6.3 4.92 8.94 7.78 3.7 7.4 6.57 10 6.11 5.07 9.18 7.47 7.27 3.35 10.53 5.48 7.12 3.17 10.55 5 7.05 3 10.63 4.61 6.94 3.28 10.64 4.55 7.39 2 11.19 3 7.3 2.56 11.17 3.2 7.68.39 11.59.71 7.63.59 11.55.59 7.66 1.55 11.41 1.25 7.33-3.12 11-3.5 8 2.64 11.65 2.09 7.13-3.44 10.77-4.17 7.47-1.24 11.08-2.15 7.29-2 10.85-3.1 7.5-1.49 11-2.78 7.77-1.18 11.19-2.66 5.8-5.58 9.13-7.26 6.89-3.13 10.13-5 6.42-4 9.55-6 7.33-2.77 10.34-5 4.91-6 7.8-8.43 6.34-4.24 9.09-6.8 4.11-6.56 6.72-9.27 5.32-5.27 7.8-8.12 5.08-5.53 7.41-8.49 4.25-6.18 6.44-9.25 5.51-5.34 7.57-8.5 4.32-6.22 6.24-9.46 3.39-6.76 5.19-10.08 3.78-6.55 5.45-9.93 2.14-7.32 3.69-10.76 5.3-5.94 6.74-9.42 6.29-17.87 7.52-21.43 3-7 4.14-10.59 1.69-7.42 2.73-11 .5-7.7 1.45-11.34.75-7.58 1.6-11.23 1.3-7.42 2.08-11.09 3.31-7 4-10.71 2-7.35 2.59-11 .38-7.62.93-11.31 1.07-7.51 1.55-11.2 2.33-7.38 2.74-11.07 0-7.66.32-11.35c.36-3.84.46-7.62.74-11.29.29-3.86 1.33-7.58 1.55-11.24.23-3.89-2.21-7.78-2.05-11.42.17-3.93 2-7.63 2.1-11.23.1-4-.78-7.77-.75-11.31 0-4.09 1.18-7.86 1.15-11.3 0-4.34 1.41-8.18 1.31-11.36-.32-7.38 2.15-7.27-2.89-9.87zM132 360.19c2-3.54 4.87-6.12 7-9.33 2.26-3.37 4.88-6.26 7.28-9.29 2.52-3.18 4.16-6.93 6.79-9.75s5.69-5.63 8.55-8.23 5.23-6.31 8.3-8.66c3.23-2.47 8-2.53 11.25-4.61 3.43-2.2 5.28-6.9 8.67-8.71 3.62-1.93 7.12-4.13 10.63-5.65 3.8-1.65 9 .68 12.53-.55 4-1.37 6.88-5.43 10.46-6.36 4.24-1.1 8.15-2.43 11.6-3 5-.88 9.13-1.5 11.91-1.72 4.25-.34 8.71 1.43 12.93.78 3.74-.58 7.31-2.31 11.07-3s7.23-2.52 11-3.29 7.64-.57 11.35-1.41 7.37-1.91 11-2.82 7.37-1.93 11-2.9 7.41-1.83 11-2.86 8.12.46 11.72-.61 6.62-4.64 10.18-5.76 7-3.33 10.53-4.49c3.72-1.22 7.62-1.53 11.11-2.72 3.74-1.27 7.24-2.79 10.68-4 3.78-1.34 7.45-2.37 10.82-3.61 3.86-1.42 7.83-1.69 11.09-2.93 4.07-1.56 7.71-2.79 10.7-4 6.75-2.68 6.67-.34 9.45-5.32-.8-3.76-2.43-6.36-3.55-9.83a101.24 101.24 0 0 0-4-10.32c-1.55-3.49-1-7.91-2.89-11.08s-5.68-5.26-7.88-8.23-3.8-6.54-6.3-9.26-3.7-7.11-6.46-9.58-8.44-1.57-11.41-3.78-4.76-6.26-7.89-8.21-5.71-5.38-9-7.08-7.81-1.35-11.16-2.82c-3.53-1.55-6.93-3.11-10.33-4.36-3.67-1.35-7.49-1.65-10.91-2.68-3.84-1.16-6.76-4.8-10.12-5.62-4.12-1-8-1.12-11.2-1.69-6.9-1.26-5.7 0-11.26-.8-3.85-.8-7.6-1.8-11.35-2.62s-7.85-.75-11.59-1.62-7-4.49-10.68-5.41-7.61-1.71-11.32-2.68-8.1 0-11.8-1-7.82-1.16-11.5-2.23-7.52-2.26-11.18-3.38-18.47-6.34-22.08-7.58-6.59-4.9-10.17-6.19-8.32-.12-11.88-1.47c-3.71-1.41-7.71-1.95-11.23-3.36-3.69-1.48-5.68-6.85-9.17-8.32-3.67-1.56-8.25-.74-11.7-2.29-3.65-1.64-7.46-2.69-10.87-4.31-3.63-1.72-7.13-3.46-10.48-5.14-3.61-1.81-5.58-6.42-8.88-8.17-3.59-1.91-7-3.62-10.24-5.45-3.57-2-6.86-4-10-5.87-3.45-2.2-7.12-3.57-10.12-5.54-3.58-2.33-8.08-2.6-10.94-4.62-3.71-2.62-4.93-7.45-7.47-9.44-6.05-4.74-4.34-6.71-9.9-5-.53 3.81.47 6.93 0 10.67S51.42 56.46 51 60.21s-3 7.44-3.27 11.2 2.94 7.88 2.73 11.65-1.85 7.57-2 11.34-.67 7.65-.72 11.42 0 7.67 0 11.44.76 7.65.88 11.41-1.64 7.76-1.42 11.52.17 7.72.47 11.47.86 7.67 1.26 11.41 1.27 7.62 1.76 11.34.33 7.75.93 11.46 5 6.93 5.65 10.62 1.07 7.58 1.87 11.24.08 7.85 1 11.49.48 7.85 1.48 11.46 3.76 6.94 4.86 10.52 2.85 7.16 4.06 10.69.89 7.88 2.2 11.37c1.37 3.65 3 7.14 4.43 10.58 1.49 3.61 4.25 6.59 5.77 10 1.61 3.57 3 7.13 4.62 10.45 1.73 3.53 4.63 6.31 6.36 9.56 1.86 3.49 2.07 7.73 3.9 10.89 2 3.46 4.49 6.42 6.42 9.49 2.16 3.43 5.66 5.65 7.68 8.59 2.35 3.42 4.36 6.59 6.45 9.36 2.65 3.52 2.8 8.29 4.85 10.74 4.78 5.64 3.1 8.08 8.78 7.27z"/></svg>