<?xml version="1.0" encoding="UTF-8" standalone="no"?>
<svg width="264px" height="264px" viewBox="0 0 264 264" version="1.1" xmlns="http://www.w3.org/2000/svg" xmlns:xlink="http://www.w3.org/1999/xlink">
    <!-- Generator: Sketch 50.2 (55047) - http://www.bohemiancoding.com/sketch -->
    <title>Page 1</title>
    <desc>Created with Sketch.</desc>
    <defs>
        <path d="M126.35872,0.318991507 C126.40128,0.316747346 126.44448,0.315464968 126.488,0.315464968 C128.34528,0.315464968 130.23872,2.00660085 132.11328,2.00660085 C134.03136,2.00660085 135.91904,1.42343949 137.81696,1.50583227 C139.73408,1.58854565 141.57696,2.1723482 143.4704,2.33617197 C144.37888,2.41375584 145.30272,2.31276858 146.22176,2.21049894 C147.23392,2.09829087 148.24352,1.98512102 149.23072,2.11496178 C150.12864,2.23261996 151.0512,2.19382803 151.9728,2.15375372 C153.00128,2.11015287 154.0272,2.06655202 155.01696,2.23967304 C156.90208,2.57052654 158.62176,3.7692293 160.48,4.18023142 C161.37888,4.379 162.34048,4.34020807 163.30048,4.30013376 C164.33248,4.25781529 165.36448,4.21453503 166.31872,4.46972824 C168.16768,4.96440552 169.52864,7.13226539 171.34464,7.70548832 C172.2368,7.98697028 173.26752,7.86225902 174.29696,7.73754777 C175.37248,7.60578344 176.44768,7.4746603 177.36224,7.80807856 C179.15936,8.46401486 180.592,10.1160382 182.35136,10.8473142 C184.11808,11.579552 186.1408,11.7587643 187.86848,12.5676242 C189.60096,13.3768047 191.18528,14.5328684 192.87552,15.4161062 C194.56896,16.3028705 195.87712,17.8853248 197.52736,18.8422994 C199.18112,19.8011975 200.92064,20.5914628 202.52832,21.6192887 C204.13984,22.6493588 206.32832,22.836586 207.89152,23.9339809 C209.45472,25.0326582 210.68864,26.6260127 212.20128,27.7907325 C213.7152,28.9573758 214.6544,30.8331741 216.11392,32.0626539 C217.57728,33.2930955 219.39776,34.0971465 220.80352,35.3891423 C222.21152,36.6830616 223.2448,38.3527176 224.59648,39.7059469 C225.9456,41.0575732 227.18336,42.4893482 228.4736,43.8990021 C229.7632,45.3083355 231.888,45.9876752 233.11648,47.4515096 C234.34336,48.9163057 234.53856,51.211121 235.7008,52.7291359 C236.86336,54.244586 237.6496,55.9931083 238.74624,57.5592123 C239.8416,59.124034 242.34976,59.7341253 243.37824,61.3470361 C244.40416,62.9570616 245.5232,64.5526603 246.48,66.2094926 C247.43424,67.8624777 248.34752,69.5827877 249.23136,71.2806561 C250.11296,72.9740361 249.2736,75.5137856 250.0832,77.2494841 C250.8896,78.9794119 252.34464,80.3935541 253.07808,82.1632357 C253.808,83.9258641 254.47808,85.7003546 255.13248,87.5020955 C255.78368,89.2942187 255.70144,91.309155 256.27616,93.1378259 C256.84736,94.9581614 257.85696,96.6185202 258.35168,98.4705945 C258.84192,100.313372 260.0384,101.979822 260.45216,103.853055 C260.8624,105.71603 261.17632,107.610423 261.50656,109.500648 C261.83424,111.377408 262.53248,113.221467 262.7792,115.124516 C263.02624,117.012817 263.48448,118.918431 263.64896,120.830777 C263.81248,122.727414 263.34464,124.697467 263.4256,126.615584 C263.50784,128.518312 263.89472,130.438994 263.89472,132.360637 C263.89472,134.28228 263.34336,136.195909 263.26112,138.098637 C263.17888,140.016754 264.12288,142.019828 263.95936,143.918068 C263.7936,145.831376 263.3776,147.753019 263.13184,149.643244 C262.88512,151.545972 261.7792,153.334569 261.4512,155.21165 C261.11968,157.101234 261.75808,159.203372 261.34656,161.065064 C260.93408,162.938297 259.60224,164.61148 259.11104,166.454257 C258.61728,168.306331 258.16384,170.177641 257.59136,171.997015 C257.01664,173.826648 256.19168,175.572926 255.5392,177.367614 C254.88448,179.167752 255.07968,181.322788 254.34976,183.086699 C253.61888,184.855418 252.28352,186.392989 251.47744,188.122917 C250.6688,189.857333 250.21984,191.802701 249.33824,193.494798 C248.4544,195.192987 246.37056,196.239408 245.41632,197.893034 C244.45952,199.549866 243.96,201.478242 242.9328,203.087947 C241.90432,204.701178 240.6608,206.169501 239.56544,207.735605 C238.46752,209.301709 237.15584,210.699501 235.9936,212.214631 C234.83008,213.732645 234.27296,215.743735 233.04576,217.208851 C231.8176,218.672365 229.90048,219.536688 228.6112,220.947304 C227.32192,222.356637 226.43104,224.147798 225.08192,225.500707 C223.73248,226.852654 221.67808,227.45441 220.27104,228.746085 C218.86432,230.038722 217.33984,231.14317 215.87776,232.373932 C214.41696,233.603091 213.01952,234.855975 211.5056,236.021656 C209.99296,237.186376 208.64,238.521652 207.0768,239.621611 C205.51616,240.719006 203.67552,241.341921 202.06528,242.372312 C200.45856,243.400138 199.77824,245.948223 198.1232,246.907762 C196.47328,247.865378 194.2304,247.766314 192.53696,248.651796 C190.84672,249.535034 188.92032,249.881276 187.18784,250.69238 C185.46144,251.499316 184.37056,253.747966 182.60416,254.482769 C180.8448,255.214045 178.78208,255.215327 176.98496,255.869981 C175.19488,256.523352 173.41792,257.225454 171.59264,257.801242 C169.77664,258.374465 168.05824,259.34234 166.20832,259.837979 C165.25408,260.093813 164.22784,260.066563 163.20064,260.037068 C162.24992,260.0111 161.2992,259.985452 160.40096,260.182938 C158.54304,260.594261 156.69888,260.982822 154.81248,261.313675 C152.93888,261.643246 151.03264,261.597401 149.13216,261.847144 C147.24672,262.092079 145.39456,262.386384 143.48576,262.552452 C141.59104,262.715955 139.73888,263.262569 137.82176,263.344962 C135.9248,263.427355 134.03136,263.841883 132.11328,263.841883 C130.1952,263.841883 128.28032,263.934856 126.3824,263.852463 C124.46656,263.77007 122.58944,263.252951 120.69504,263.089448 C118.78624,262.924342 116.92224,262.537064 115.0368,262.29213 C114.1248,262.172227 113.17984,262.275779 112.23616,262.378049 C111.21472,262.488975 110.19456,262.598297 109.22144,262.42742 C107.33376,262.095285 105.6272,260.852019 103.76896,260.439735 C102.87008,260.241928 101.912,260.276231 100.9552,260.309253 C99.92576,260.346762 98.89504,260.38331 97.94176,260.128117 C96.09312,259.632157 94.43328,258.429928 92.6176,257.857667 C90.79232,257.281879 89.01504,256.571762 87.22624,255.918391 C85.42912,255.262454 83.74144,254.349722 81.98208,253.618766 C80.21536,252.883964 78.04224,253.055803 76.31584,252.247904 C74.58336,251.437762 73.27168,249.746947 71.58144,248.863709 C69.88672,247.978227 68.26464,246.98214 66.6144,246.025807 C64.96096,245.066268 62.71936,245.049597 61.11296,244.021771 C59.50144,242.99138 58.768,240.641102 57.20704,239.544028 C55.64288,238.444068 53.20032,238.534476 51.68768,237.370076 C50.17408,236.204395 48.54272,235.118862 47.08064,233.8881 C45.61952,232.657658 44.14944,231.367265 42.74368,230.07527 C41.33568,228.782312 40.92288,226.426584 39.57376,225.073355 C38.22336,223.721408 35.92192,223.262316 34.63136,221.851701 C33.34208,220.443329 32.97312,218.20013 31.74496,216.735333 C30.51776,215.270537 29.95008,213.307858 28.78656,211.789843 C27.62528,210.275675 25.94112,209.175715 24.84448,207.609611 C23.74912,206.043507 21.62048,205.153217 20.59232,203.539023 C19.56608,201.928036 18.44352,200.320896 17.48576,198.664064 C16.53248,197.009796 17.20256,194.447285 16.31872,192.750699 C15.43712,191.056036 14.28416,189.519427 13.47424,187.783728 C12.66816,186.054121 12.2272,184.184414 11.49632,182.415374 C10.76512,180.651463 9.92736,178.955839 9.27264,177.154418 C8.62144,175.361013 8.20992,173.511183 7.6352,171.683794 C7.06304,169.863459 4.88512,168.502214 4.3904,166.648858 C3.89888,164.807042 5.17536,162.522486 4.76288,160.649253 C4.35264,158.787561 4.248,156.8999 3.91776,155.010316 C3.5888,153.134197 1.31552,151.549499 1.06752,149.64645 C0.82304,147.756866 0.44128,145.830093 0.27552,143.916786 C0.11328,142.019828 2.05824,139.974435 1.976,138.055036 C1.89376,136.15327 1.10176,134.28228 1.10176,132.360637 C1.10176,130.438994 1.24512,128.539471 1.32736,126.639308 C1.4096,124.718626 1.22848,122.797945 1.39328,120.900987 C1.55776,118.987679 1.9584,117.113163 2.20544,115.222938 C2.45216,113.320531 3.28768,111.53514 3.61568,109.65838 C3.94592,107.766873 4.58784,105.986932 4.99776,104.12524 C5.41056,102.251686 5.7984,100.424297 6.2896,98.582482 C6.78432,96.7291253 6.20736,94.5885159 6.77984,92.7691423 C7.35456,90.9404713 8.7648,89.4144416 9.416,87.6200743 C10.07072,85.8192951 9.38176,83.4962675 10.11168,81.7333185 C10.84384,79.9636369 11.87136,78.2952633 12.67744,76.5666178 C13.48736,74.8309193 14.68256,73.2731507 15.56512,71.5797707 C16.44928,69.8819023 17.0016,67.9859066 17.95584,66.3316391 C18.9136,64.6748068 21.11744,63.7870807 22.14368,62.1760934 C23.17088,60.562862 24.08512,58.9146858 25.17952,57.3508259 C26.27712,55.7847219 27.52064,54.3680149 28.68416,52.8525648 C29.848,51.3348705 30.97504,49.8370531 32.2032,48.3735393 C33.43136,46.9084225 34.53376,45.3743779 35.82336,43.9660064 C37.1136,42.5553907 37.32992,40.1063694 38.67936,38.7544225 C40.02848,37.4024756 41.8352,36.4874989 43.2432,35.1945414 C44.64864,33.9028662 46.52,33.1411338 47.98336,31.9106921 C49.44416,30.6799299 51.15072,29.7925244 52.66464,28.6265223 C54.17728,27.4608408 55.0976,25.5013673 56.66176,24.40269 C58.22368,23.3052951 59.58944,21.871276 61.19968,20.8408854 C62.80768,19.8117771 64.7504,19.2936964 66.40416,18.3347983 C68.0544,17.3778238 69.85856,16.6923928 71.55456,15.8081932 C73.2432,14.9239936 74.72192,13.5848705 76.45312,12.7737665 C78.17984,11.9658684 80.4704,12.4566985 82.2368,11.7231783 C83.99776,10.9931847 85.03904,8.38995754 86.83616,7.73498301 C87.7504,7.40188535 88.83168,7.55384713 89.91296,7.70548832 C90.95072,7.85039703 91.98976,7.99626752 92.8832,7.71414437 C94.70016,7.14156263 96.41376,6.29743737 98.26272,5.80051592 C100.10208,5.3084034 101.74752,4.00454565 103.61632,3.59129936 C105.47552,3.18061783 107.37024,2.83565817 109.25664,2.50448408 C111.12992,2.17619533 112.94592,1.21152654 114.84544,0.962104034 C115.82336,0.835789809 116.84224,1.01019321 117.8624,1.18331423 C118.80864,1.34585563 119.75808,1.50711465 120.6784,1.42696603 C122.57088,1.26346285 124.4432,0.400422505 126.35872,0.318991507 Z" id="path-1"></path>
    </defs>
    <g id="Page-1" stroke="none" stroke-width="1" fill="none" fill-rule="evenodd">
        <g id="Desktop-HD-Copy-22" transform="translate(-709.000000, -1275.000000)">
            <g id="Page-1" transform="translate(709.000000, 1274.000000)">
                <g id="Group-3" transform="translate(0.000000, 0.830149)">
                    <mask id="mask-2" fill="white">
                        <use xlink:href="#path-1"></use>
                    </mask>
                    <g id="Clip-2"></g>
                    <path d="M-2.955552,-2.96017707 C-0.912672,-5.0084552 -0.847392,-3.8937482 2.042528,-3.8937482 C4.932768,-3.8937482 4.932768,-4.48748917 7.823328,-4.48748917 C10.713568,-4.48748917 10.713568,-2.68735117 13.603808,-2.68735117 C16.494048,-2.68735117 16.494048,-4.2823087 19.384608,-4.2823087 C22.274208,-4.2823087 22.274208,-2.86688408 25.163808,-2.86688408 C28.053088,-2.86688408 28.053088,-4.57404968 30.942688,-4.57404968 C33.832288,-4.57404968 33.832288,-4.43266752 36.722208,-4.43266752 C39.612128,-4.43266752 39.612128,-4.60514735 42.502368,-4.60514735 C45.391648,-4.60514735 45.391648,-4.55513461 48.281248,-4.55513461 C51.171168,-4.55513461 51.171168,-2.98101571 54.061088,-2.98101571 C56.951328,-2.98101571 56.951328,-3.71165053 59.841248,-3.71165053 C62.731168,-3.71165053 62.731168,-3.94504331 65.620768,-3.94504331 C68.511008,-3.94504331 68.511008,-2.7607673 71.400928,-2.7607673 C74.291168,-2.7607673 74.291168,-4.03320679 77.181088,-4.03320679 C80.071008,-4.03320679 80.071008,-3.95658471 82.960608,-3.95658471 C85.851168,-3.95658471 85.851168,-3.85655924 88.741728,-3.85655924 C91.631328,-3.85655924 91.631328,-3.59110701 94.521248,-3.59110701 C97.411808,-3.59110701 97.411808,-3.49909639 100.302688,-3.49909639 C103.192608,-3.49909639 103.192608,-3.62124289 106.082528,-3.62124289 C108.973088,-3.62124289 108.973088,-3.83700297 111.863968,-3.83700297 C114.753888,-3.83700297 114.753888,-3.99569724 117.644128,-3.99569724 C120.534368,-3.99569724 120.534368,-4.61284161 123.424608,-4.61284161 C126.315168,-4.61284161 126.315168,-4.62245945 129.205728,-4.62245945 C132.095968,-4.62245945 132.095968,-3.76422803 134.985888,-3.76422803 C137.876768,-3.76422803 137.876768,-3.90721316 140.767008,-3.90721316 C143.657888,-3.90721316 143.657888,-4.48556561 146.548448,-4.48556561 C149.439008,-4.48556561 149.439008,-2.66298599 152.329568,-2.66298599 C155.220128,-2.66298599 155.220128,-3.40291805 158.110368,-3.40291805 C161.000928,-3.40291805 161.000928,-2.67068025 163.891168,-2.67068025 C166.782048,-2.67068025 166.782048,-3.43401571 169.672608,-3.43401571 C172.563168,-3.43401571 172.563168,-2.69825138 175.453728,-2.69825138 C178.344608,-2.69825138 178.344608,-2.71171635 181.235808,-2.71171635 C184.126368,-2.71171635 184.126368,-3.40740637 187.016928,-3.40740637 C189.907808,-3.40740637 189.907808,-3.35995839 192.798368,-3.35995839 C195.688928,-3.35995839 195.688928,-2.94991805 198.579168,-2.94991805 C201.469088,-2.94991805 201.469088,-3.28878641 204.359328,-3.28878641 C207.250208,-3.28878641 207.250208,-2.93228535 210.140768,-2.93228535 C213.031648,-2.93228535 213.031648,-2.81783312 215.922528,-2.81783312 C218.813088,-2.81783312 218.813088,-4.2130603 221.703968,-4.2130603 C224.594528,-4.2130603 224.594528,-3.46222803 227.485408,-3.46222803 C230.376288,-3.46222803 230.376288,-4.33039788 233.267168,-4.33039788 C236.158368,-4.33039788 236.158368,-4.27237028 239.049888,-4.27237028 C241.940128,-4.27237028 241.940128,-3.55808577 244.830688,-3.55808577 C247.722208,-3.55808577 247.722208,-3.0743087 250.613408,-3.0743087 C253.504928,-3.0743087 253.504928,-2.88740212 256.397088,-2.88740212 C259.288928,-2.88740212 259.288928,-3.03840212 262.180768,-3.03840212 C265.072928,-3.03840212 266.443168,-6.31648068 268.488608,-4.26852314 C270.532768,-2.22152739 267.957728,-0.847780042 267.957728,2.0478293 C267.957728,4.94343864 266.893728,4.94343864 266.893728,7.83936858 C266.893728,10.7349779 269.043168,10.7349779 269.043168,13.6302667 C269.043168,16.525876 266.866528,16.525876 266.866528,19.4218059 C266.866528,22.3167741 266.870048,22.3167741 266.870048,25.2117423 C266.870048,28.1063898 267.461408,28.1063898 267.461408,31.001358 C267.461408,33.8966467 267.430368,33.8966467 267.430368,36.7916149 C267.430368,39.6872242 268.064288,39.6872242 268.064288,42.5828335 C268.064288,45.4774811 268.119008,45.4774811 268.119008,48.3721287 C268.119008,51.2674174 269.023968,51.2674174 269.023968,54.1630268 C269.023968,57.0583155 268.605408,57.0583155 268.605408,59.9539248 C268.605408,62.848893 268.538528,62.848893 268.538528,65.7438611 C268.538528,68.6394705 266.957728,68.6394705 266.957728,71.5350798 C266.957728,74.4303686 266.957408,74.4303686 266.957408,77.3256573 C266.957408,80.2209461 267.785248,80.2209461 267.785248,83.1162348 C267.785248,86.0118442 267.641888,86.0118442 267.641888,88.9077741 C267.641888,91.8030628 269.045088,91.8030628 269.045088,94.6983516 C269.045088,97.5942815 268.229728,97.5942815 268.229728,100.490532 C268.229728,103.385821 269.062048,103.385821 269.062048,106.28111 C269.062048,109.177039 267.599008,109.177039 267.599008,112.072969 C267.599008,114.968579 268.824608,114.968579 268.824608,117.863868 C268.824608,120.759477 267.095648,120.759477 267.095648,123.655407 C267.095648,126.551337 268.890528,126.551337 268.890528,129.446946 C268.890528,132.342555 267.709088,132.342555 267.709088,135.238165 C267.709088,138.134095 266.919008,138.134095 266.919008,141.030025 C266.919008,143.925955 268.602528,143.925955 268.602528,146.822205 C268.602528,149.717814 267.990368,149.717814 267.990368,152.614065 C267.990368,155.509674 268.176608,155.509674 268.176608,158.405604 C268.176608,161.301214 268.642848,161.301214 268.642848,164.197144 C268.642848,167.093073 268.141728,167.093073 268.141728,169.989003 C268.141728,172.884933 267.760928,172.884933 267.760928,175.780863 C267.760928,178.677114 268.520608,178.677114 268.520608,181.573685 C268.520608,184.469935 267.346848,184.469935 267.346848,187.365865 C267.346848,190.261795 268.874848,190.261795 268.874848,193.158046 C268.874848,196.053976 268.924768,196.053976 268.924768,198.949265 C268.924768,201.844874 269.034528,201.844874 269.034528,204.740483 C269.034528,207.636734 268.947808,207.636734 268.947808,210.532343 C268.947808,213.428914 267.664288,213.428914 267.664288,216.325165 C267.664288,219.221095 268.826848,219.221095 268.826848,222.117025 C268.826848,225.013275 266.964448,225.013275 266.964448,227.909526 C266.964448,230.805776 267.266528,230.805776 267.266528,233.701706 C267.266528,236.598277 268.937248,236.598277 268.937248,239.495169 C268.937248,242.391099 268.381728,242.391099 268.381728,245.286708 C268.381728,248.1836 267.078048,248.1836 267.078048,251.080492 C267.078048,253.977383 266.850848,253.977383 266.850848,256.874596 C266.850848,259.771808 268.316768,259.771808 268.316768,262.669341 C268.316768,265.566553 269.451808,265.856691 267.407648,267.906252 C265.364768,269.954209 265.074848,267.428887 262.184288,267.428887 C259.294048,267.428887 259.294048,267.884131 256.403808,267.884131 C253.513568,267.884131 253.513568,268.179398 250.623648,268.179398 C247.733088,268.179398 247.733088,269.424267 244.842528,269.424267 C241.953248,269.424267 241.953248,268.365343 239.063648,268.365343 C236.174048,268.365343 236.174048,268.793016 233.284768,268.793016 C230.394848,268.793016 230.394848,268.474666 227.504928,268.474666 C224.615008,268.474666 224.615008,269.543848 221.724768,269.543848 C218.835488,269.543848 218.835488,268.063023 215.945888,268.063023 C213.055968,268.063023 213.055968,268.593606 210.166048,268.593606 C207.276128,268.593606 207.276128,268.33136 204.385568,268.33136 C201.495968,268.33136 201.495968,269.481974 198.606688,269.481974 C195.716448,269.481974 195.716448,267.775129 192.825888,267.775129 C189.935968,267.775129 189.935968,268.360214 187.046368,268.360214 C184.156448,268.360214 184.156448,268.577577 181.266208,268.577577 C178.375968,268.577577 178.375968,269.380986 175.485728,269.380986 C172.595808,269.380986 172.595808,267.963318 169.705568,267.963318 C166.815008,267.963318 166.815008,269.51788 163.924448,269.51788 C161.034528,269.51788 161.034528,268.133553 158.144288,268.133553 C155.253728,268.133553 155.253728,268.015575 152.363168,268.015575 C149.473248,268.015575 149.473248,267.555521 146.583328,267.555521 C143.692768,267.555521 143.692768,268.576935 140.802208,268.576935 C137.911968,268.576935 137.911968,269.304364 135.021728,269.304364 C132.131168,269.304364 132.131168,268.67664 129.240928,268.67664 C126.350688,268.67664 126.350688,267.441069 123.460128,267.441069 C120.569568,267.441069 120.569568,268.226846 117.678368,268.226846 C114.788128,268.226846 114.788128,268.986655 111.897568,268.986655 C109.007328,268.986655 109.007328,268.353481 106.116768,268.353481 C103.226208,268.353481 103.226208,268.754865 100.335648,268.754865 C97.445408,268.754865 97.445408,269.23736 94.554848,269.23736 C91.664288,269.23736 91.664288,269.509545 88.773408,269.509545 C85.882528,269.509545 85.882528,269.274228 82.991648,269.274228 C80.100768,269.274228 80.100768,268.809366 77.210208,268.809366 C74.319328,268.809366 74.319328,269.326165 71.428448,269.326165 C68.538208,269.326165 68.538208,267.675424 65.648288,267.675424 C62.757728,267.675424 62.757728,267.710689 59.867488,267.710689 C56.976928,267.710689 56.976928,267.659394 54.086688,267.659394 C51.195488,267.659394 51.195488,269.338989 48.304288,269.338989 C45.413728,269.338989 45.413728,269.187989 42.523488,269.187989 C39.632608,269.187989 39.632608,268.085785 36.741728,268.085785 C33.850848,268.085785 33.850848,267.974218 30.959968,267.974218 C28.068768,267.974218 28.068768,268.022628 25.177568,268.022628 C22.287008,268.022628 22.287008,269.072575 19.396768,269.072575 C16.504928,269.072575 16.504928,268.316933 13.613408,268.316933 C10.721888,268.316933 10.721888,267.723192 7.830368,267.723192 C4.938528,267.723192 4.938528,268.179398 2.046368,268.179398 C-0.845472,268.179398 -1.174112,269.992681 -3.219552,267.944723 C-5.264032,265.898048 -4.190112,265.568477 -4.190112,262.672868 C-4.190112,259.777258 -4.025632,259.777258 -4.025632,256.881649 C-4.025632,253.986039 -4.022752,253.986039 -4.022752,251.09043 C-4.022752,248.1945 -2.977312,248.1945 -2.977312,245.298891 C-2.977312,242.403923 -2.775712,242.403923 -2.775712,239.508955 C-2.775712,236.613986 -4.612192,236.613986 -4.612192,233.719339 C-4.612192,230.824371 -3.128352,230.824371 -3.128352,227.928761 C-3.128352,225.033473 -4.462112,225.033473 -4.462112,222.138184 C-4.462112,219.243536 -4.039712,219.243536 -4.039712,216.348248 C-4.039712,213.452959 -3.566112,213.452959 -3.566112,210.557991 C-3.566112,207.662381 -4.565472,207.662381 -4.565472,204.766772 C-4.565472,201.871804 -3.011232,201.871804 -3.011232,198.976836 C-3.011232,196.081547 -4.645152,196.081547 -4.645152,193.185617 C-4.645152,190.290328 -4.141472,190.290328 -4.141472,187.395039 C-4.141472,184.499751 -3.452512,184.499751 -3.452512,181.604462 C-3.452512,178.708853 -2.912032,178.708853 -2.912032,175.812923 C-2.912032,172.917955 -3.240992,172.917955 -3.240992,170.022345 C-3.240992,167.126415 -2.735712,167.126415 -2.735712,164.230485 C-2.735712,161.335197 -4.032992,161.335197 -4.032992,158.439587 C-4.032992,155.543657 -2.638432,155.543657 -2.638432,152.647727 C-2.638432,149.752439 -4.019872,149.752439 -4.019872,146.856829 C-4.019872,143.960899 -4.434592,143.960899 -4.434592,141.06529 C-4.434592,138.169681 -2.783392,138.169681 -2.783392,135.273751 C-2.783392,132.378141 -3.968672,132.378141 -3.968672,129.482532 C-3.968672,126.586602 -3.537952,126.586602 -3.537952,123.690993 C-3.537952,120.794742 -3.321312,120.794742 -3.321312,117.898492 C-3.321312,115.002562 -3.246432,115.002562 -3.246432,112.106952 C-3.246432,109.211023 -3.398432,109.211023 -3.398432,106.315413 C-3.398432,103.419163 -3.138912,103.419163 -3.138912,100.523553 C-3.138912,97.6276234 -3.208992,97.6276234 -3.208992,94.7316934 C-3.208992,91.8354429 -4.712992,91.8354429 -4.712992,88.939513 C-4.712992,86.0432624 -3.996832,86.0432624 -3.996832,83.1470119 C-3.996832,80.251082 -3.092512,80.251082 -3.092512,77.355152 C-3.092512,74.4585809 -3.279392,74.4585809 -3.279392,71.562651 C-3.279392,68.6670416 -4.291232,68.6670416 -4.291232,65.7714323 C-4.291232,62.8758229 -4.096672,62.8758229 -4.096672,59.9802136 C-4.096672,57.0842837 -2.884832,57.0842837 -2.884832,54.1883537 C-2.884832,51.2921032 -4.122592,51.2921032 -4.122592,48.3955321 C-4.122592,45.4996021 -3.760032,45.4996021 -3.760032,42.6036722 C-3.760032,39.7077423 -3.211552,39.7077423 -3.211552,36.8114917 C-3.211552,33.9149206 -4.083552,33.9149206 -4.083552,31.0186701 C-4.083552,28.1220989 -3.465632,28.1220989 -3.465632,25.2255278 C-3.465632,22.3299185 -4.752992,22.3299185 -4.752992,19.4339885 C-4.752992,16.5367762 -3.963232,16.5367762 -3.963232,13.6402051 C-3.963232,10.7433134 -4.367072,10.7433134 -4.367072,7.84642166 C-4.367072,4.94888875 -3.070112,4.88252569 -3.483552,2.01480807 C-3.866592,-0.642599575 -5.000032,-0.910937155 -2.955552,-2.96017707" id="Fill-1" fill="#C6356A" mask="url(#mask-2)"></path>
                </g>
            </g>
        </g>
    </g>
</svg>